<?xml version="1.0" encoding="UTF-8"?>
<svg version="1.1" xmlns="http://www.w3.org/2000/svg" width="500" height="125">
<path d="M0 0 C3.444375 -0.061875 6.88875 -0.12375 10.4375 -0.1875 C11.50411865 -0.21481201 12.5707373 -0.24212402 13.66967773 -0.27026367 C20.20852889 -0.32652356 27.49696241 -0.1357114 32.62280273 4.45263672 C36.4402576 8.91501881 37.33898433 11.90873978 37.29296875 17.60546875 C36.81795493 21.48791503 35.24925755 23.82457757 33 27 C32.01 27.495 32.01 27.495 31 28 C32.45044271 32.10958767 34.51110752 35.43258745 37 39 C40.00189206 35.44850609 41.72017825 31.43812262 43.5390625 27.20703125 C43.86538666 26.46039719 44.19171082 25.71376312 44.52792358 24.94450378 C45.56523388 22.5692903 46.59552416 20.19111837 47.625 17.8125 C48.66261815 15.42362657 49.70172571 13.03542528 50.74349976 10.64836121 C51.39054409 9.16490767 52.03500433 7.6803239 52.67666626 6.1945343 C54.88851378 1.11148622 54.88851378 1.11148622 56 0 C58.01964199 -0.07244053 60.04167124 -0.08377188 62.0625 -0.0625 C63.71958984 -0.04896484 63.71958984 -0.04896484 65.41015625 -0.03515625 C66.26480469 -0.02355469 67.11945313 -0.01195313 68 0 C68.55929199 1.29248657 68.55929199 1.29248657 69.12988281 2.61108398 C70.53106281 5.84854038 71.93263909 9.08582463 73.33447266 12.32299805 C73.93781839 13.71648536 74.54101216 15.11003848 75.14404297 16.50366211 C76.01749059 18.52215176 76.89152134 20.54038813 77.765625 22.55859375 C78.04764771 23.21072845 78.32967041 23.86286316 78.62023926 24.53475952 C80.1884506 28.15435117 81.78995124 31.75641662 83.421875 35.34765625 C85 39 85 39 85 41 C80.71 41 76.42 41 72 41 C71.34 38.69 70.68 36.38 70 34 C61.585 34.495 61.585 34.495 53 35 C52.01 36.98 51.02 38.96 50 41 C45.79285562 41.26221814 41.58781109 41.42147604 37.375 41.5625 C35.59029297 41.67561523 35.59029297 41.67561523 33.76953125 41.79101562 C30.29665901 41.87832247 27.37160505 41.85291063 24 41 C21.77226074 38.82648616 20.52699889 36.84437759 19.171875 34.05273438 C18.08339556 31.60616027 18.08339556 31.60616027 14.625 30.9375 C13.325625 30.9684375 13.325625 30.9684375 12 31 C12 34.3 12 37.6 12 41 C8.04 41 4.08 41 0 41 C0 27.47 0 13.94 0 0 Z M12 10 C12 13.63 12 17.26 12 21 C13.588125 21.061875 15.17625 21.12375 16.8125 21.1875 C17.70582031 21.22230469 18.59914063 21.25710937 19.51953125 21.29296875 C22.03605189 21.19924272 22.03605189 21.19924272 23.83203125 19.6796875 C25.30554356 17.92127907 25.30554356 17.92127907 24.875 14.9375 C24.25349587 11.70744585 24.25349587 11.70744585 21 10 C17.97670744 9.7389212 15.04123758 9.91184819 12 10 Z M61 13 C59.68 16.63 58.36 20.26 57 24 C59.97 24 62.94 24 66 24 C64.68 20.37 63.36 16.74 62 13 C61.67 13 61.34 13 61 13 Z " fill="#FEFEFE" transform="translate(289,79)"/>
<path d="M0 0 C0.93199219 -0.00257812 1.86398438 -0.00515625 2.82421875 -0.0078125 C3.80003906 -0.00007813 4.77585937 0.00765625 5.78125 0.015625 C6.75707031 0.00789063 7.73289062 0.00015625 8.73828125 -0.0078125 C9.67027344 -0.00523438 10.60226563 -0.00265625 11.5625 0 C12.41908203 0.00225586 13.27566406 0.00451172 14.15820312 0.00683594 C16.28125 0.265625 16.28125 0.265625 18.28125 2.265625 C18.48492442 4.89954001 18.56445184 7.42875622 18.5559082 10.06420898 C18.5635746 11.27173828 18.5635746 11.27173828 18.57139587 12.50366211 C18.58533163 15.17308929 18.58433211 17.84225944 18.58203125 20.51171875 C18.58591606 22.3625549 18.59025028 24.21339015 18.59501648 26.06422424 C18.60248731 29.94722379 18.60218123 33.83013243 18.59692383 37.71313477 C18.59112875 42.69466314 18.60805689 47.67581976 18.6312685 52.65728664 C18.64598476 56.48080123 18.64688041 60.30422586 18.64375877 64.12776375 C18.64427307 65.96461791 18.64953108 67.80147696 18.65957069 69.63830376 C18.67187682 72.20499855 18.66517876 74.77096379 18.65356445 77.33764648 C18.66503006 78.48092155 18.66503006 78.48092155 18.67672729 79.64729309 C18.62526817 84.77983307 18.62526817 84.77983307 16.88529968 87.23686218 C14.79844915 88.575271 13.40946812 88.65307365 10.9375 88.6640625 C10.10347656 88.66792969 9.26945312 88.67179687 8.41015625 88.67578125 C7.54261719 88.66417969 6.67507812 88.65257813 5.78125 88.640625 C4.91371094 88.65222656 4.04617187 88.66382812 3.15234375 88.67578125 C2.31832031 88.67191406 1.48429687 88.66804688 0.625 88.6640625 C-0.51678711 88.65898682 -0.51678711 88.65898682 -1.68164062 88.65380859 C-4.42352276 88.13132626 -5.09548337 87.55785811 -6.71875 85.265625 C-7.00963621 82.54635784 -7.11833569 80.0569555 -7.09106445 77.33764648 C-7.09471512 76.53087463 -7.09836578 75.72410278 -7.10212708 74.8928833 C-7.11023871 72.22394823 -7.09661876 69.55561906 -7.08203125 66.88671875 C-7.08151277 65.0349172 -7.08203001 63.18311509 -7.08354187 61.33131409 C-7.08345212 57.45004055 -7.0730166 53.56897462 -7.05493164 49.68774414 C-7.03222857 44.70508085 -7.03170294 39.72272059 -7.03844929 34.7400198 C-7.04178546 30.91654248 -7.03516609 27.09313464 -7.02532005 23.26967049 C-7.02146288 21.43200099 -7.02032197 19.59432378 -7.0219059 17.75665092 C-7.02227545 15.19235284 -7.00968812 12.62844815 -6.9934082 10.06420898 C-6.99588562 9.30000137 -6.99836304 8.53579376 -7.00091553 7.74842834 C-6.94019779 1.77685851 -6.03903157 0.01590415 0 0 Z " fill="#FEFEFE" transform="translate(94.71875,32.734375)"/>
<path d="M0 0 C1.24233398 0.00483398 1.24233398 0.00483398 2.50976562 0.00976562 C3.33412109 -0.00634766 4.15847656 -0.02246094 5.0078125 -0.0390625 C5.80123047 -0.03970703 6.59464844 -0.04035156 7.41210938 -0.04101562 C8.137771 -0.04399658 8.86343262 -0.04697754 9.61108398 -0.05004883 C12.21731845 0.44472368 12.96148069 1.22428195 14.57226562 3.32226562 C14.9397583 5.83351135 14.9397583 5.83351135 14.92871094 8.86352539 C14.93171204 9.99802628 14.93471313 11.13252716 14.93780518 12.30140686 C14.92545837 13.52645432 14.91311157 14.75150177 14.90039062 16.01367188 C14.89851746 17.26985825 14.89664429 18.52604462 14.89471436 19.82029724 C14.88798654 22.47775446 14.87569989 25.13444814 14.85351562 27.79174805 C14.82520458 31.20047879 14.81430091 34.60897081 14.80983353 38.01780796 C14.80468184 41.26645893 14.7901428 44.51505224 14.77539062 47.76367188 C14.77114075 48.99074356 14.76689087 50.21781525 14.76251221 51.48207092 C14.75290466 52.61341965 14.74329712 53.74476837 14.73339844 54.91040039 C14.72657043 55.90950943 14.71974243 56.90861847 14.71270752 57.93800354 C14.57226562 60.32226562 14.57226562 60.32226562 13.57226562 62.32226562 C9.87280564 63.55541895 6.42459004 63.50633829 2.57226562 63.50976562 C1.8478125 63.52201172 1.12335938 63.53425781 0.37695312 63.546875 C-3.43473736 63.55742396 -5.18136478 63.48651202 -8.42773438 61.32226562 C-8.80195618 58.85534668 -8.80195618 58.85534668 -8.80004883 55.7109375 C-8.80627762 54.53631958 -8.81250641 53.36170166 -8.81892395 52.15148926 C-8.8097142 50.87753296 -8.80050446 49.60357666 -8.79101562 48.29101562 C-8.79151413 46.98902222 -8.79201263 45.68702881 -8.79252625 44.34558105 C-8.79243648 41.58817996 -8.7819983 38.83107097 -8.76391602 36.07373047 C-8.74122831 32.535975 -8.74068411 28.99864651 -8.74743366 25.46083832 C-8.75157507 22.09168182 -8.73960416 18.72265739 -8.72851562 15.35351562 C-8.72942703 14.07955933 -8.73033844 12.80560303 -8.73127747 11.49304199 C-8.72174545 10.31842407 -8.71221344 9.14380615 -8.70239258 7.93359375 C-8.69778519 6.89593872 -8.6931778 5.85828369 -8.68843079 4.78918457 C-8.11519593 -0.63522427 -4.4105459 0.039476 0 0 Z " fill="#FEFEFE" transform="translate(68.427734375,57.677734375)"/>
<path d="M0 0 C10 0 10 0 13.20703125 2.59765625 C14.10670235 3.72848372 14.97526673 4.88469726 15.8125 6.0625 C16.46895508 6.90458008 16.46895508 6.90458008 17.13867188 7.76367188 C18.46601096 9.48429662 19.73762691 11.23102666 21 13 C22.65 15.31 24.3 17.62 26 20 C26.33 13.4 26.66 6.8 27 0 C30.96 0 34.92 0 39 0 C39 13.53 39 27.06 39 41 C28 41 28 41 24.15234375 37.82421875 C23.04720433 36.4720327 21.97558768 35.09181985 20.9375 33.6875 C20.38384766 32.99720703 19.83019531 32.30691406 19.25976562 31.59570312 C17.03864154 28.80243043 14.98028335 25.97042502 13 23 C12.67 28.94 12.34 34.88 12 41 C8.04 41 4.08 41 0 41 C0 27.47 0 13.94 0 0 Z " fill="#FEFEFE" transform="translate(304,33)"/>
<path d="M0 0 C11 0 11 0 13.578125 1.87109375 C14.12984375 2.71800781 14.6815625 3.56492187 15.25 4.4375 C16.18585938 5.79294922 16.18585938 5.79294922 17.140625 7.17578125 C17.75421875 8.10777344 18.3678125 9.03976563 19 10 C20.31909334 11.71935258 21.65151274 13.42860303 23 15.125 C24.00072069 16.41610839 25.00100775 17.70755377 26 19 C26.06058594 17.71222656 26.12117188 16.42445312 26.18359375 15.09765625 C26.26798247 13.41925841 26.3526313 11.74087364 26.4375 10.0625 C26.47681641 9.21236328 26.51613281 8.36222656 26.55664062 7.48632812 C26.59853516 6.67744141 26.64042969 5.86855469 26.68359375 5.03515625 C26.72025146 4.2862915 26.75690918 3.53742676 26.79467773 2.76586914 C27 1 27 1 28 0 C31.63 0 35.26 0 39 0 C39 13.53 39 27.06 39 41 C29 41 29 41 26.046875 38.875 C25.28890625 37.92625 24.5309375 36.9775 23.75 36 C22.93273437 35.00355469 22.11546875 34.00710937 21.2734375 32.98046875 C20.52320313 31.99691406 19.77296875 31.01335937 19 30 C18.35289062 29.17113281 17.70578125 28.34226562 17.0390625 27.48828125 C15.65915134 25.68403121 14.32354459 23.8459964 13 22 C12.67 28.27 12.34 34.54 12 41 C8.04 41 4.08 41 0 41 C0 27.47 0 13.94 0 0 Z " fill="#FEFEFE" transform="translate(204,79)"/>
<path d="M0 0 C1.38251953 -0.0309375 1.38251953 -0.0309375 2.79296875 -0.0625 C10.42027322 -0.10553134 17.06821875 0.74577018 23 5.8125 C26.4522793 10.0199654 26.3278535 13.15705624 26.29296875 18.48046875 C25.77610501 23.36655396 23.42046436 25.82953564 20 29.25 C20.5053125 30.03246094 21.010625 30.81492187 21.53125 31.62109375 C22.1809375 32.63300781 22.830625 33.64492187 23.5 34.6875 C24.1496875 35.69683594 24.799375 36.70617187 25.46875 37.74609375 C27 40.25 27 40.25 27 41.25 C15.56953429 42.47105865 15.56953429 42.47105865 11.80078125 39.5390625 C8 34.44067797 8 34.44067797 8 31.25 C6.02 31.25 4.04 31.25 2 31.25 C2 34.55 2 37.85 2 41.25 C-2.29 41.25 -6.58 41.25 -11 41.25 C-11.02464705 35.57169922 -11.04283462 29.89342931 -11.05493164 24.21508789 C-11.05997256 22.28181415 -11.06680519 20.34854424 -11.07543945 18.4152832 C-11.08751565 15.64273128 -11.09323057 12.87022959 -11.09765625 10.09765625 C-11.10281754 9.22786636 -11.10797882 8.35807648 -11.11329651 7.46192932 C-11.11349185 5.39094186 -11.06208168 3.32005676 -11 1.25 C-8.68092078 -1.06907922 -3.10909439 0.01682866 0 0 Z M2 10.25 C2 13.88 2 17.51 2 21.25 C3.423125 21.311875 4.84625 21.37375 6.3125 21.4375 C7.11300781 21.47230469 7.91351563 21.50710937 8.73828125 21.54296875 C11.06641185 21.43380515 11.06641185 21.43380515 12.765625 19.89453125 C14.19485163 18.24927562 14.19485163 18.24927562 14.4375 15.75 C14.2020974 13.18963041 14.2020974 13.18963041 12.5 11.4375 C8.87730459 9.71671968 5.98961898 10.05051905 2 10.25 Z " fill="#FEFEFE" transform="translate(470,78.75)"/>
<path d="M0 0 C4.77661235 2.89056799 8.05190883 7.00207393 10.875 11.75 C12.42778077 18.42695732 12.27652208 24.59006415 8.8359375 30.6171875 C5.33968551 35.38108641 1.12426394 38.61497459 -4.5 40.4375 C-13.08043895 41.50583775 -20.45983679 40.69467961 -27.5 35.4375 C-33.16779922 29.45555024 -33.91946902 23.69196113 -33.83984375 15.73828125 C-33.25617998 10.06936298 -30.95001062 6.57656835 -26.71484375 2.87890625 C-19.34651109 -2.64343224 -8.53884636 -3.8797865 0 0 Z M-19.5 11.4375 C-21.81069059 14.4083879 -21.97087809 17.68911104 -21.89453125 21.40234375 C-21.18647817 25.05477597 -19.12465368 26.87533808 -16.5 29.4375 C-12.98841877 31.19329061 -9.21330026 30.3889506 -5.5 29.4375 C-2.38229948 26.78745456 -1.63543269 24.93408653 -0.5625 21 C-0.47559437 16.04637898 -1.89643401 13.15560642 -5.25 9.5625 C-10.38213114 6.99643443 -15.1358608 7.94618864 -19.5 11.4375 Z " fill="#FEFEFE" transform="translate(442.5,80.5625)"/>
<path d="M0 0 C6.6 0 13.2 0 20 0 C22.25052519 5.62631297 22.25052519 5.62631297 22.16699219 9.39135742 C22.15327576 10.22539597 22.13955933 11.05943451 22.12542725 11.91874695 C22.099505 12.80536514 22.07358276 13.69198334 22.046875 14.60546875 C22.02659241 15.52588455 22.00630981 16.44630035 21.9854126 17.39460754 C21.9399523 19.33375666 21.88920091 21.27278805 21.83349609 23.21166992 C21.75000899 26.18717975 21.68832467 29.16259475 21.62890625 32.13867188 C21.58203172 34.02347034 21.53389832 35.90823802 21.484375 37.79296875 C21.46654968 38.68565964 21.44872437 39.57835052 21.43035889 40.49809265 C21.40403381 41.32267471 21.37770874 42.14725677 21.35058594 42.99682617 C21.32155182 44.08673103 21.32155182 44.08673103 21.29193115 45.19865417 C21 47 21 47 19 49 C17.15234375 49.25878906 17.15234375 49.25878906 14.9375 49.265625 C13.74253906 49.26949219 13.74253906 49.26949219 12.5234375 49.2734375 C11.69070312 49.26570313 10.85796875 49.25796875 10 49.25 C8.75089844 49.26160156 8.75089844 49.26160156 7.4765625 49.2734375 C6.67992187 49.27085938 5.88328125 49.26828125 5.0625 49.265625 C4.33160156 49.26336914 3.60070313 49.26111328 2.84765625 49.25878906 C1 49 1 49 -1 47 C-1.24723816 45.0645752 -1.24723816 45.0645752 -1.24291992 42.67382812 C-1.24599655 41.77950073 -1.24907318 40.88517334 -1.25224304 39.96374512 C-1.24505753 38.99602173 -1.23787201 38.02829834 -1.23046875 37.03125 C-1.23001053 36.04000122 -1.22955231 35.04875244 -1.2290802 34.02746582 C-1.22605582 31.92926844 -1.21816401 29.83107335 -1.20581055 27.73291016 C-1.18757513 24.51326583 -1.18530068 21.29390928 -1.18554688 18.07421875 C-1.18063098 16.03906 -1.17480236 14.00390321 -1.16796875 11.96875 C-1.16685593 11.00102661 -1.1657431 10.03330322 -1.16459656 9.03625488 C-1.15502678 7.69476379 -1.15502678 7.69476379 -1.14526367 6.32617188 C-1.14145187 5.53722534 -1.13764008 4.74827881 -1.13371277 3.9354248 C-1 2 -1 2 0 0 Z " fill="#FEFEFE" transform="translate(33,72)"/>
<path d="M0 0 C0.78821819 2.29543427 1.13558044 3.58008982 0.37915039 5.92285156 C0.03875732 6.5722168 -0.30163574 7.22158203 -0.65234375 7.890625 C-1.01650391 8.59960938 -1.38066406 9.30859375 -1.75585938 10.0390625 C-2.34077148 11.13347656 -2.34077148 11.13347656 -2.9375 12.25 C-3.51661133 13.36761719 -3.51661133 13.36761719 -4.10742188 14.5078125 C-5.06090166 16.34414394 -6.02905677 18.17284207 -7 20 C-8.98 19.34 -10.96 18.68 -13 18 C-13.4125 18.42410156 -13.825 18.84820313 -14.25 19.28515625 C-17.93125477 23.02393063 -21.69651434 26.57418967 -25.7109375 29.953125 C-27.50675859 31.55894454 -29.1394614 33.17497539 -30.7890625 34.921875 C-38.25898421 42.65229005 -38.25898421 42.65229005 -42.7578125 43.55078125 C-46.73222923 43.19737102 -50.34048458 42.1967119 -54.15625 41.05859375 C-57.67106587 40.1924427 -60.38332257 39.68418965 -64 40 C-68.14978793 42.64781245 -71.28137749 45.85629251 -74.58007812 49.47949219 C-76.73191075 51.78375862 -79.07752908 53.84983342 -81.4375 55.9375 C-82.19933594 56.62714844 -82.96117187 57.31679688 -83.74609375 58.02734375 C-91.06897898 64.43645474 -91.06897898 64.43645474 -96 65 C-96.66 63.35 -97.32 61.7 -98 60 C-96.84960919 58.84960919 -95.69888266 57.69955293 -94.546875 56.55078125 C-93.48959702 55.49083338 -92.43774005 54.42545767 -91.390625 53.35546875 C-87.7891915 49.69621407 -84.07933182 46.24132233 -80.17578125 42.90625 C-78.57738608 41.5058607 -77.01727714 40.06146158 -75.48046875 38.59375 C-74.19076172 37.37171875 -74.19076172 37.37171875 -72.875 36.125 C-72.08867188 35.36445312 -71.30234375 34.60390625 -70.4921875 33.8203125 C-66.28221703 30.74531839 -63.12783346 30.83026665 -58.0546875 31.59375 C-56.65924787 31.88545207 -55.26598331 32.18773844 -53.875 32.5 C-47.92127651 33.9588924 -47.92127651 33.9588924 -42 33 C-40.24056692 31.72409659 -40.24056692 31.72409659 -38.609375 30.0859375 C-37.98554932 29.49280762 -37.36172363 28.89967773 -36.71899414 28.28857422 C-36.06922607 27.65709473 -35.41945801 27.02561523 -34.75 26.375 C-33.41132531 25.09252859 -32.07149191 23.81126552 -30.73046875 22.53125 C-30.08899902 21.91765625 -29.4475293 21.3040625 -28.78662109 20.671875 C-26.05100856 18.11195773 -23.16778818 15.7432731 -20.22265625 13.4296875 C-18.56670937 11.80687317 -18.56670937 11.80687317 -19 8 C-19.61344757 6.31301918 -20.27095914 4.64034193 -21 3 C-18.38946744 0.38946744 -16.95005246 0.62145901 -13.3125 0.375 C-12.24128906 0.30152344 -11.17007813 0.22804687 -10.06640625 0.15234375 C-6.6976928 -0.01501908 -3.37123457 -0.07661897 0 0 Z " fill="#FDFDFD" transform="translate(109,3)"/>
<path d="M0 0 C10.56 0 21.12 0 32 0 C32 3.3 32 6.6 32 10 C25.4 10 18.8 10 12 10 C12 11.98 12 13.96 12 16 C17.94 16 23.88 16 30 16 C30 18.97 30 21.94 30 25 C24.06 25 18.12 25 12 25 C12 27.31 12 29.62 12 32 C18.93 32 25.86 32 33 32 C33 34.97 33 37.94 33 41 C22.11 41 11.22 41 0 41 C0 27.47 0 13.94 0 0 Z " fill="#FEFEFE" transform="translate(251,79)"/>
<path d="M0 0 C10.56 0 21.12 0 32 0 C32 3.3 32 6.6 32 10 C25.4 10 18.8 10 12 10 C12 11.98 12 13.96 12 16 C17.94 16 23.88 16 30 16 C30 18.97 30 21.94 30 25 C24.06 25 18.12 25 12 25 C12 27.31 12 29.62 12 32 C18.93 32 25.86 32 33 32 C33 34.97 33 37.94 33 41 C22.11 41 11.22 41 0 41 C0 27.47 0 13.94 0 0 Z " fill="#FEFEFE" transform="translate(166,79)"/>
<path d="M0 0 C1.39154757 0.8053973 2.77395835 1.62836022 4.125 2.5 C4.125 6.5 4.125 6.5 1.875 9.3125 C-0.875 11.5 -0.875 11.5 -3 11.4375 C-4.875 10.5 -4.875 10.5 -7.875 8.5 C-13.23036444 8.06811577 -16.5027173 8.05517121 -20.875 11.5 C-22.03797973 13.82595946 -22.04100691 15.28723231 -22.0625 17.875 C-22.08376953 19.03128906 -22.08376953 19.03128906 -22.10546875 20.2109375 C-21.84303345 22.81749827 -21.33986727 24.32811477 -19.875 26.5 C-15.74461074 29.30654655 -11.69746009 28.64183706 -6.875 28.5 C-6.875 24.87 -6.875 21.24 -6.875 17.5 C-3.245 17.5 0.385 17.5 4.125 17.5 C4.23287818 20.27186988 4.31223327 23.03955537 4.375 25.8125 C4.42527344 26.99102539 4.42527344 26.99102539 4.4765625 28.19335938 C4.57495604 33.97397996 4.57495604 33.97397996 2.484375 36.41796875 C-5.36935739 40.01976324 -13.88340992 41.07822641 -22.3515625 38.84765625 C-28.54190406 36.0631976 -32.64099532 31.343576 -35.3125 25.1875 C-36.37077321 18.2499312 -35.91160253 11.42035038 -31.875 5.5 C-23.20786558 -3.42457405 -11.41163908 -5.74651725 0 0 Z " fill="#FDFDFD" transform="translate(292.875,35.5)"/>
<path d="M0 0 C3.07666106 2.17176075 3.78029582 2.98254055 5.1875 6.25 C3.2075 8.23 1.2275 10.21 -0.8125 12.25 C-5.5625 10.375 -5.5625 10.375 -7.8125 9.25 C-14.18044949 8.75307351 -14.18044949 8.75307351 -19.8125 11.25 C-22.1316058 14.26483754 -22.24587698 17.54065479 -22.11328125 21.28125 C-21.59193987 24.69366629 -20.48165647 26.10165455 -17.8125 28.25 C-13.82719062 29.2139557 -9.89404073 29.25 -5.8125 29.25 C-5.998125 28.734375 -6.18375 28.21875 -6.375 27.6875 C-6.96669517 24.39091261 -6.379767 21.52754265 -5.8125 18.25 C-2.5125 18.25 0.7875 18.25 4.1875 18.25 C4.1875 24.19 4.1875 30.13 4.1875 36.25 C-4.29223493 40.30002265 -12.1750511 41.99000869 -21.46484375 39.5546875 C-27.4257322 37.194136 -30.54070146 33.89132248 -33.9140625 28.484375 C-36.15887768 22.90161725 -35.89413614 15.36453263 -33.9375 9.73046875 C-27.23808529 -1.79516905 -11.98841875 -5.64030771 0 0 Z " fill="#FEFEFE" transform="translate(154.8125,80.75)"/>
<path d="M0 0 C1.65322266 0.01740234 1.65322266 0.01740234 3.33984375 0.03515625 C4.44457031 0.04417969 5.54929687 0.05320313 6.6875 0.0625 C7.54214844 0.07410156 8.39679688 0.08570313 9.27734375 0.09765625 C11.70553961 5.45131149 14.1264166 10.80819149 16.54052734 16.16821289 C17.36305897 17.99171322 18.18759438 19.81431107 19.01416016 21.63598633 C20.20090417 24.25237935 21.38043854 26.87191786 22.55859375 29.4921875 C22.930448 30.30790726 23.30230225 31.12362701 23.6854248 31.96406555 C24.02577759 32.72462753 24.36613037 33.48518951 24.71679688 34.26879883 C25.01880005 34.93720291 25.32080322 35.60560699 25.63195801 36.29426575 C26.27734375 38.09765625 26.27734375 38.09765625 26.27734375 41.09765625 C22.31734375 41.09765625 18.35734375 41.09765625 14.27734375 41.09765625 C13.28734375 39.11765625 12.29734375 37.13765625 11.27734375 35.09765625 C5.66734375 34.76765625 0.05734375 34.43765625 -5.72265625 34.09765625 C-6.38265625 36.40765625 -7.04265625 38.71765625 -7.72265625 41.09765625 C-12.01265625 41.09765625 -16.30265625 41.09765625 -20.72265625 41.09765625 C-16.71567331 31.21288047 -12.58825378 21.38464971 -8.34765625 11.59765625 C-7.90695801 10.57663818 -7.46625977 9.55562012 -7.01220703 8.50366211 C-6.39321533 7.08065796 -6.39321533 7.08065796 -5.76171875 5.62890625 C-5.39256348 4.77876953 -5.0234082 3.92863281 -4.64306641 3.05273438 C-3.2609669 0.11696438 -3.2609669 0.11696438 0 0 Z M2.27734375 14.09765625 C0.95734375 17.39765625 -0.36265625 20.69765625 -1.72265625 24.09765625 C1.24734375 24.09765625 4.21734375 24.09765625 7.27734375 24.09765625 C5.95734375 20.79765625 4.63734375 17.49765625 3.27734375 14.09765625 C2.94734375 14.09765625 2.61734375 14.09765625 2.27734375 14.09765625 Z " fill="#FDFDFD" transform="translate(365.72265625,32.90234375)"/>
<path d="M0 0 C1.51400391 0.01740234 1.51400391 0.01740234 3.05859375 0.03515625 C4.07050781 0.04417969 5.08242187 0.05320313 6.125 0.0625 C7.29869141 0.07990234 7.29869141 0.07990234 8.49609375 0.09765625 C13.33571792 9.41190501 17.80069727 18.84973841 21.99609375 28.47265625 C22.44130371 29.4891626 22.88651367 30.50566895 23.34521484 31.55297852 C23.75594238 32.50358154 24.16666992 33.45418457 24.58984375 34.43359375 C24.95787109 35.2848584 25.32589844 36.13612305 25.70507812 37.01318359 C26.49609375 39.09765625 26.49609375 39.09765625 26.49609375 41.09765625 C22.20609375 41.09765625 17.91609375 41.09765625 13.49609375 41.09765625 C12.83609375 38.78765625 12.17609375 36.47765625 11.49609375 34.09765625 C3.08109375 34.59265625 3.08109375 34.59265625 -5.50390625 35.09765625 C-6.49390625 37.07765625 -7.48390625 39.05765625 -8.50390625 41.09765625 C-12.46390625 41.09765625 -16.42390625 41.09765625 -20.50390625 41.09765625 C-18.11658617 33.17529036 -14.77886532 25.74089755 -11.35107422 18.22900391 C-10.36943122 16.07688352 -9.39517818 13.92152813 -8.421875 11.765625 C-7.80120605 10.3969427 -7.18012754 9.02844604 -6.55859375 7.66015625 C-6.26693329 7.01546387 -5.97527283 6.37077148 -5.67477417 5.70654297 C-3.12054036 0.12170594 -3.12054036 0.12170594 0 0 Z M2.49609375 13.09765625 C1.17609375 16.72765625 -0.14390625 20.35765625 -1.50390625 24.09765625 C1.46609375 24.09765625 4.43609375 24.09765625 7.49609375 24.09765625 C6.17609375 20.46765625 4.85609375 16.83765625 3.49609375 13.09765625 C3.16609375 13.09765625 2.83609375 13.09765625 2.49609375 13.09765625 Z " fill="#FEFEFE" transform="translate(137.50390625,32.90234375)"/>
<path d="M0 0 C0.67740234 -0.01160156 1.35480469 -0.02320313 2.05273438 -0.03515625 C7.14567537 -0.00585841 10.58754021 1.16960912 15.0625 3.375 C14.0725 6.345 13.0825 9.315 12.0625 12.375 C10.70125 12.045 9.34 11.715 7.9375 11.375 C1.3974486 9.85706977 1.3974486 9.85706977 -4.9375 11.375 C-5.2675 12.365 -5.5975 13.355 -5.9375 14.375 C-4.84050781 14.61734375 -3.74351562 14.8596875 -2.61328125 15.109375 C-1.15869109 15.4472153 0.29572719 15.78579625 1.75 16.125 C2.8318457 16.36089844 2.8318457 16.36089844 3.93554688 16.6015625 C8.52815532 17.69204487 11.58694408 19.00456486 15.0625 22.375 C17.53851332 26.53920421 17.22033642 29.74365432 16.0625 34.375 C13.88627684 38.05783919 11.42594319 40.34325957 7.375 41.87109375 C-0.5151967 43.59041026 -10.8016713 43.67774534 -17.9375 39.375 C-19.32945915 35.19912255 -17.76073219 33.24025224 -15.9375 29.375 C-13.17473823 29.89768466 -10.6114124 30.48369587 -7.9375 31.375 C-5.87856379 31.59825814 -3.81516347 31.78205759 -1.75 31.9375 C-0.66332031 32.02128906 0.42335937 32.10507813 1.54296875 32.19140625 C2.37441406 32.25199219 3.20585937 32.31257813 4.0625 32.375 C4.17209782 30.41014042 4.17209782 30.41014042 3.0625 28.375 C-0.22938834 27.14993653 -3.4501243 26.29376545 -6.859375 25.484375 C-12.37128442 24.00507578 -14.78860692 22.18665481 -17.9375 17.375 C-19.17972827 13.17765729 -18.20322448 9.91666914 -16.3125 6.0625 C-11.68264404 0.82345247 -6.75990778 -0.11511669 0 0 Z " fill="#FDFDFD" transform="translate(218.9375,32.625)"/>
<path d="M0 0 C12.21 0 24.42 0 37 0 C37 3.3 37 6.6 37 10 C33.04 10 29.08 10 25 10 C25 20.23 25 30.46 25 41 C20.71 41 16.42 41 12 41 C12 30.77 12 20.54 12 10 C8.04 10 4.08 10 0 10 C0 6.7 0 3.4 0 0 Z " fill="#FEFEFE" transform="translate(371,79)"/>
<path d="M0 0 C1.93945312 -0.37231445 1.93945312 -0.37231445 4.28125 -0.36328125 C5.54388672 -0.36231445 5.54388672 -0.36231445 6.83203125 -0.36132812 C7.71246094 -0.34521484 8.59289063 -0.32910156 9.5 -0.3125 C10.38042969 -0.31572266 11.26085938 -0.31894531 12.16796875 -0.32226562 C18.73302968 -0.26697032 18.73302968 -0.26697032 21 2 C21.39820611 6.27584873 21.32904395 10.56609349 21.31567383 14.85839844 C21.31251177 16.99205485 21.33597638 19.12432744 21.36132812 21.2578125 C21.36360088 22.60937325 21.36430472 23.96093773 21.36328125 25.3125 C21.36626221 26.54613281 21.36924316 27.77976562 21.37231445 29.05078125 C21.1880188 30.51064453 21.1880188 30.51064453 21 32 C17.38079729 34.41280181 14.73646788 34.26353585 10.5625 34.1875 C9.24378906 34.18105469 7.92507812 34.17460938 6.56640625 34.16796875 C1.39659091 33.92448347 1.39659091 33.92448347 -1 33 C-3.28128029 28.43743942 -2.18502621 22.07192821 -2.1875 17.0625 C-2.19974609 15.76119141 -2.21199219 14.45988281 -2.22460938 13.11914062 C-2.22654297 11.87455078 -2.22847656 10.62996094 -2.23046875 9.34765625 C-2.23457764 8.20304932 -2.23868652 7.05844238 -2.24291992 5.87915039 C-2 3 -2 3 0 0 Z " fill="#FEFEFE" transform="translate(5,87)"/>
<path d="M0 0 C3.96 0 7.92 0 12 0 C12 10.56 12 21.12 12 32 C18.27 32 24.54 32 31 32 C31.33 34.97 31.66 37.94 32 41 C21.44 41 10.88 41 0 41 C0 27.47 0 13.94 0 0 Z " fill="#FEFEFE" transform="translate(395,33)"/>
<path d="M0 0 C3.96 0 7.92 0 12 0 C12 13.53 12 27.06 12 41 C8.04 41 4.08 41 0 41 C0 27.47 0 13.94 0 0 Z " fill="#FEFEFE" transform="translate(240,33)"/>
<path d="M0 0 C3.96 0 7.92 0 12 0 C12 13.53 12 27.06 12 41 C8.04 41 4.08 41 0 41 C0 27.47 0 13.94 0 0 Z " fill="#FEFEFE" transform="translate(167,33)"/>
</svg>
