<?xml version="1.0" encoding="UTF-8"?>
<svg version="1.1" xmlns="http://www.w3.org/2000/svg" width="500" height="127">
<path d="M0 0 C3.444375 -0.061875 6.88875 -0.12375 10.4375 -0.1875 C11.50411865 -0.21481201 12.5707373 -0.24212402 13.66967773 -0.27026367 C21.36041022 -0.33643428 27.96141384 0.46784487 34 5.5 C37.31451603 9.64314503 37.33390229 13.37263898 37.2890625 18.484375 C36.86821305 22.14690262 35.43136325 24.29076667 33 27 C32.01 27.33 31.02 27.66 30 28 C32.64 31.63 35.28 35.26 38 39 C43.61 26.13 49.22 13.26 55 0 C59.29 0 63.58 0 68 0 C70.26691652 5.03247088 72.52704758 10.06791315 74.78100586 15.10620117 C75.54836291 16.81894469 76.31755193 18.53086868 77.08862305 20.24194336 C78.19805412 22.70472298 79.30081499 25.17039638 80.40234375 27.63671875 C80.74716293 28.39836838 81.09198212 29.16001801 81.44725037 29.94474792 C81.76750687 30.66511734 82.08776337 31.38548676 82.41772461 32.12768555 C82.69974228 32.75611862 82.98175995 33.3845517 83.27232361 34.0320282 C84 36 84 36 85 41 C80.71 41 76.42 41 72 41 C71.34 38.69 70.68 36.38 70 34 C64.39 34 58.78 34 53 34 C52.34 36.31 51.68 38.62 51 41 C46.62614201 41.26210888 42.25430191 41.42144886 37.875 41.5625 C36.6375 41.63791016 35.4 41.71332031 34.125 41.79101562 C30.53972742 41.87775609 27.48669914 41.85458312 24 41 C21.73913534 38.82719007 20.50658374 36.87055381 19.15429688 34.05273438 C18.08534388 31.60384214 18.08534388 31.60384214 14.625 30.9375 C13.325625 30.9684375 13.325625 30.9684375 12 31 C12 34.3 12 37.6 12 41 C8.04 41 4.08 41 0 41 C0 27.47 0 13.94 0 0 Z M12 10 C12 13.63 12 17.26 12 21 C18.15726062 21.55634143 18.15726062 21.55634143 23.625 19.3125 C25.22359548 17.07235395 25.22359548 17.07235395 25 14.375 C24.1968843 11.96279595 24.1968843 11.96279595 22.4375 10.6875 C18.89342826 9.68789002 15.67781281 9.87740624 12 10 Z M61 14 C59.68 17.3 58.36 20.6 57 24 C59.97 24 62.94 24 66 24 C64.68 20.7 63.36 17.4 62 14 C61.67 14 61.34 14 61 14 Z " fill="#010101" transform="translate(288,80)"/>
<path d="M0 0 C0.91120605 0.01047363 1.82241211 0.02094727 2.76123047 0.03173828 C3.74736328 0.03818359 4.73349609 0.04462891 5.74951172 0.05126953 C7.29832031 0.07640625 7.29832031 0.07640625 8.87841797 0.10205078 C9.91869141 0.11107422 10.95896484 0.12009766 12.03076172 0.12939453 C14.60520889 0.15301331 17.17920009 0.18594929 19.75341797 0.22705078 C21.3053501 3.33091505 20.9095667 6.61834408 20.91455078 10.02563477 C20.91951569 10.8306543 20.92448059 11.63567383 20.92959595 12.46508789 C20.94422971 15.13444872 20.95102104 17.80375015 20.95654297 20.47314453 C20.96229274 22.32397972 20.9680505 24.17481488 20.97381592 26.02565002 C20.9843289 29.90862303 20.99016984 33.79157531 20.99365234 37.67456055 C20.99914239 42.65606391 21.02318 47.63729467 21.0516243 52.61871243 C21.07022338 56.44221301 21.07545478 60.26564752 21.07698822 64.08918953 C21.08002069 65.92605139 21.08806913 67.76291192 21.1011734 69.59972954 C21.1181796 72.16638994 21.11636732 74.73237879 21.10986328 77.29907227 C21.11907806 78.06125565 21.12829285 78.82343903 21.13778687 79.60871887 C21.09692886 84.74138605 21.09692886 84.74138605 19.35845947 87.19927979 C17.2656244 88.53940412 15.88704531 88.60003387 13.40966797 88.59033203 C12.15863281 88.58936523 12.15863281 88.58936523 10.88232422 88.58837891 C10.01478516 88.57226562 9.14724609 88.55615234 8.25341797 88.53955078 C7.38587891 88.54277344 6.51833984 88.54599609 5.62451172 88.54931641 C-0.84568612 88.49431472 -0.84568612 88.49431472 -4.24658203 86.22705078 C-4.54353155 83.51640114 -4.6456492 81.03371622 -4.61889648 78.32080078 C-4.62254715 77.50442139 -4.62619781 76.68804199 -4.62995911 75.84692383 C-4.63808545 73.14008987 -4.62443745 70.43385066 -4.60986328 67.72705078 C-4.60934492 65.85139974 -4.60986168 63.97574816 -4.6113739 62.10009766 C-4.61128408 58.16577055 -4.60083545 54.23164797 -4.58276367 50.29736328 C-4.56007617 45.24629121 -4.55953138 40.19551817 -4.56628132 35.14440918 C-4.56961779 31.27031787 -4.56299729 27.39629512 -4.55315208 23.5222168 C-4.54929424 21.65942748 -4.54815428 19.79663053 -4.54973793 17.93383789 C-4.55010749 15.33351019 -4.53751918 12.73357039 -4.52124023 10.13330078 C-4.52371765 9.35817139 -4.52619507 8.58304199 -4.52874756 7.78442383 C-4.45521575 0.45026632 -4.45521575 0.45026632 0 0 Z " fill="#000000" transform="translate(91.24658203125,33.77294921875)"/>
<path d="M0 0 C1.32064453 0.00483398 1.32064453 0.00483398 2.66796875 0.00976562 C3.54839844 -0.00634766 4.42882812 -0.02246094 5.3359375 -0.0390625 C6.17769531 -0.03970703 7.01945312 -0.04035156 7.88671875 -0.04101562 C8.65951172 -0.04399658 9.43230469 -0.04697754 10.22851562 -0.05004883 C10.86853516 0.07281494 11.50855469 0.19567871 12.16796875 0.32226562 C14.42353093 3.70560889 14.42429857 4.88199493 14.44262695 8.84765625 C14.45692497 10.54456604 14.45692497 10.54456604 14.47151184 12.27575684 C14.47060043 13.49766724 14.46968903 14.71957764 14.46875 15.97851562 C14.47303513 17.23233032 14.47732025 18.48614502 14.48173523 19.7779541 C14.48748282 22.43105047 14.48890884 25.0837583 14.48364258 27.73681641 C14.47784342 31.13664778 14.49479069 34.53593517 14.51798725 37.93567657 C14.53625812 41.17911907 14.53253958 44.42253091 14.53125 47.66601562 C14.54045975 48.88792603 14.54966949 50.10983643 14.55915833 51.36877441 C14.55292953 52.50004761 14.54670074 53.6313208 14.5402832 54.796875 C14.54091263 55.79376343 14.54154205 56.79065186 14.54219055 57.81774902 C14.16796875 60.32226562 14.16796875 60.32226562 12.76727295 62.14433289 C10.72671104 63.64726439 9.52640858 63.69589306 7.0078125 63.68554688 C6.21439453 63.68490234 5.42097656 63.68425781 4.60351562 63.68359375 C3.77916016 63.66748047 2.95480469 63.65136719 2.10546875 63.63476562 C1.27724609 63.63798828 0.44902344 63.64121094 -0.40429688 63.64453125 C-6.56490533 63.58939155 -6.56490533 63.58939155 -8.83203125 61.32226562 C-9.08599854 58.85534668 -9.08599854 58.85534668 -9.09082031 55.7109375 C-9.09712463 54.53631958 -9.10342896 53.36170166 -9.10992432 52.15148926 C-9.10587585 50.87753296 -9.10182739 49.60357666 -9.09765625 48.29101562 C-9.0995697 46.98902222 -9.10148315 45.68702881 -9.10345459 44.34558105 C-9.10640516 41.58824934 -9.10211049 38.83104714 -9.09277344 36.07373047 C-9.08137878 32.53599489 -9.08793863 28.99856276 -9.09991837 25.46083832 C-9.10887519 22.09170629 -9.10260765 18.72265629 -9.09765625 15.35351562 C-9.10170471 14.07955933 -9.10575317 12.80560303 -9.10992432 11.49304199 C-9.10362 10.31842407 -9.09731567 9.14380615 -9.09082031 7.93359375 C-9.08922913 6.89593872 -9.08763794 5.85828369 -9.08599854 4.78918457 C-8.51265853 -0.77997099 -4.49398372 0.03785132 0 0 Z " fill="#000000" transform="translate(67.83203125,58.677734375)"/>
<path d="M0 0 C11 0 11 0 13.51806641 1.54467773 C14.04062012 2.25052002 14.56317383 2.9563623 15.1015625 3.68359375 C15.98908203 4.82731445 15.98908203 4.82731445 16.89453125 5.99414062 C17.46558594 6.80044922 18.03664062 7.60675781 18.625 8.4375 C19.53958984 9.64116211 19.53958984 9.64116211 20.47265625 10.86914062 C21.58949573 12.34292101 22.69226487 13.82754873 23.77587891 15.32592773 C24.89471514 16.94585328 24.89471514 16.94585328 26 18 C26.33 12.06 26.66 6.12 27 0 C30.96 0 34.92 0 39 0 C40.66577625 3.33155251 40.12007856 7.06536059 40.09765625 10.7265625 C40.0962413 11.58937836 40.09482635 12.45219421 40.09336853 13.34115601 C40.08776188 16.1024723 40.07520827 18.86370812 40.0625 21.625 C40.05748586 23.4947905 40.0529228 25.36458226 40.04882812 27.234375 C40.03779029 31.82294777 40.0205212 36.41146023 40 41 C29.07870555 41.78242109 29.07870555 41.78242109 25.0703125 38.875 C24.42835938 37.92625 23.78640625 36.9775 23.125 36 C22.06345703 34.50533203 22.06345703 34.50533203 20.98046875 32.98046875 C20.32691406 31.99691406 19.67335937 31.01335937 19 30 C17.82130507 28.43084712 16.63502573 26.86732945 15.4375 25.3125 C14.633125 24.219375 13.82875 23.12625 13 22 C12.67 28.27 12.34 34.54 12 41 C8.04 41 4.08 41 0 41 C0 27.47 0 13.94 0 0 Z " fill="#010101" transform="translate(203,80)"/>
<path d="M0 0 C10 0 10 0 13.4609375 2.88671875 C14.46303196 4.12947369 15.43433207 5.3976252 16.375 6.6875 C16.86871094 7.31333984 17.36242187 7.93917969 17.87109375 8.58398438 C18.79549417 9.76105424 19.70792771 10.9477143 20.60302734 12.1472168 C22.3535125 14.46885815 24.18362819 16.72953523 26 19 C26.33 12.73 26.66 6.46 27 0 C30.96 0 34.92 0 39 0 C39 13.53 39 27.06 39 41 C28 41 28 41 25.16796875 39.09375 C24.51441406 38.2378125 23.86085938 37.381875 23.1875 36.5 C22.47078125 35.59507813 21.7540625 34.69015625 21.015625 33.7578125 C20.35046875 32.84773438 19.6853125 31.93765625 19 31 C18.37609375 30.19304687 17.7521875 29.38609375 17.109375 28.5546875 C15.70763847 26.72718987 14.34848693 24.86713575 13 23 C12.67 28.94 12.34 34.88 12 41 C8.04 41 4.08 41 0 41 C0 27.47 0 13.94 0 0 Z " fill="#000000" transform="translate(303,34)"/>
<path d="M0 0 C5.445 -0.0928125 5.445 -0.0928125 11 -0.1875 C12.12792969 -0.21481201 13.25585938 -0.24212402 14.41796875 -0.27026367 C22.09324849 -0.33318689 27.95152085 0.3406884 33.9375 5.5625 C37.58839767 9.87719725 37.44025098 13.40143324 37.43359375 18.93359375 C36.77827766 23.56803637 34.49177485 26.04861887 31 29 C31.5053125 29.69867188 32.010625 30.39734375 32.53125 31.1171875 C33.1809375 32.02726562 33.830625 32.93734375 34.5 33.875 C35.47453125 35.23238281 35.47453125 35.23238281 36.46875 36.6171875 C38 39 38 39 38 41 C33.54918172 41.54212974 29.42973828 41.78750903 25 41 C22.57618364 38.87547227 21.16575066 36.8503116 19.5625 34.06640625 C18.1330034 31.74886978 18.1330034 31.74886978 15.3125 31.21484375 C14.549375 31.14394531 13.78625 31.07304688 13 31 C13 34.3 13 37.6 13 41 C8.71 41 4.42 41 0 41 C0 27.47 0 13.94 0 0 Z M13 10 C13 13.63 13 17.26 13 21 C14.423125 21.061875 15.84625 21.12375 17.3125 21.1875 C18.11300781 21.22230469 18.91351563 21.25710937 19.73828125 21.29296875 C22.0661478 21.18419397 22.0661478 21.18419397 23.76171875 19.64453125 C25.18830819 17.99698657 25.18830819 17.99698657 25.5 15.5 C25.22943654 12.83175894 25.22943654 12.83175894 22.9375 11.1875 C19.4483377 9.77698758 16.7303242 9.78056916 13 10 Z " fill="#010101" transform="translate(458,80)"/>
<path d="M0 0 C4.55310138 3.89495165 8.21631306 8.70005927 8.921875 14.7578125 C9.19211115 21.98143279 8.05934236 27.55357205 3.6484375 33.41015625 C-3.88612092 39.78667943 -11.76973619 40.16437983 -21.3515625 39.41015625 C-28.1914478 37.55724615 -31.7744292 33.2758562 -35.6015625 27.53515625 C-37.86296033 21.12786241 -37.92823806 14.70382336 -35.3515625 8.41015625 C-32.48054298 3.96820152 -28.76830773 -0.40444234 -23.62890625 -2.1875 C-15.9532995 -3.54356774 -6.88193462 -4.19227021 0 0 Z M-23.3515625 12.41015625 C-24.88371138 15.47445401 -24.58094798 18.02672045 -24.3515625 21.41015625 C-22.57220923 25.53076383 -20.52110297 27.70443515 -16.3515625 29.41015625 C-12.04187245 29.41015625 -9.95336036 28.85496336 -6.4765625 26.28515625 C-3.89228492 22.7887807 -3.3515625 20.74655041 -3.3515625 16.41015625 C-4.59811763 12.80899699 -5.70507734 10.93433341 -8.6640625 8.53515625 C-15.36847511 5.72865795 -18.51717725 7.68819856 -23.3515625 12.41015625 Z " fill="#030303" transform="translate(444.3515625,82.58984375)"/>
<path d="M0 0 C1.39895508 -0.0309375 1.39895508 -0.0309375 2.82617188 -0.0625 C3.71755859 -0.06765625 4.60894531 -0.0728125 5.52734375 -0.078125 C6.75892212 -0.09214355 6.75892212 -0.09214355 8.01538086 -0.10644531 C8.69093018 0.01118164 9.36647949 0.12880859 10.0625 0.25 C12.11126534 3.32314801 12.31217404 3.93650883 12.30541992 7.3984375 C12.30849655 8.22939941 12.31157318 9.06036133 12.31474304 9.91650391 C12.30755753 10.81030762 12.30037201 11.70411133 12.29296875 12.625 C12.29228142 14.00631104 12.29228142 14.00631104 12.2915802 15.41552734 C12.28855947 17.3623178 12.28067854 19.30910587 12.26831055 21.25585938 C12.25007113 24.23836822 12.24780079 27.22056624 12.24804688 30.203125 C12.24313087 32.09375269 12.2373022 33.98437827 12.23046875 35.875 C12.22935593 36.76880371 12.2282431 37.66260742 12.22709656 38.58349609 C12.22071671 39.41445801 12.21433685 40.24541992 12.20776367 41.1015625 C12.20204597 42.19718506 12.20204597 42.19718506 12.19621277 43.31494141 C12.0625 45.25 12.0625 45.25 11.0625 48.25 C7.64423253 49.95913373 3.82895237 49.43458479 0.0625 49.4375 C-0.77023438 49.44974609 -1.60296875 49.46199219 -2.4609375 49.47460938 C-3.65589844 49.47750977 -3.65589844 49.47750977 -4.875 49.48046875 C-5.60589844 49.48457764 -6.33679687 49.48868652 -7.08984375 49.49291992 C-8.9375 49.25 -8.9375 49.25 -10.9375 47.25 C-11.18473816 45.2698822 -11.18473816 45.2698822 -11.18041992 42.81616211 C-11.18349655 41.89858627 -11.18657318 40.98101044 -11.18974304 40.03562927 C-11.18255753 39.04289505 -11.17537201 38.05016083 -11.16796875 37.02734375 C-11.16751053 36.01152725 -11.16705231 34.99571075 -11.1665802 33.94911194 C-11.16355596 31.79964023 -11.15566456 29.65017075 -11.14331055 27.50073242 C-11.12505624 24.19767558 -11.1228008 20.89489888 -11.12304688 17.59179688 C-11.11813179 15.50781006 -11.11230351 13.42382515 -11.10546875 11.33984375 C-11.10379951 9.84770607 -11.10379951 9.84770607 -11.10209656 8.32542419 C-11.09571671 7.41100052 -11.08933685 6.49657684 -11.08276367 5.55444336 C-11.07895187 4.74551132 -11.07514008 3.93657928 -11.07121277 3.10313416 C-10.72106058 -1.74964827 -3.67502456 0.02023413 0 0 Z " fill="#000000" transform="translate(41.9375,72.75)"/>
<path d="M0 0 C0.924695 2.49328756 1.26208993 4.28581933 0.33251953 6.81884766 C-0.69669783 8.8573818 -1.79334098 10.83622532 -2.9375 12.8125 C-3.32357422 13.50537109 -3.70964844 14.19824219 -4.10742188 14.91210938 C-5.05884293 16.61527052 -6.02773905 18.3086489 -7 20 C-8.07378906 19.7628125 -9.14757812 19.525625 -10.25390625 19.28125 C-13.90315097 18.62546233 -13.90315097 18.62546233 -16.15234375 20.40625 C-16.74144531 21.0971875 -17.33054687 21.788125 -17.9375 22.5 C-18.94490234 23.61568359 -18.94490234 23.61568359 -19.97265625 24.75390625 C-20.97619141 25.86572266 -20.97619141 25.86572266 -22 27 C-23.91486294 28.76012654 -25.88046104 30.44213491 -27.86328125 32.125 C-29.44621346 33.51404472 -30.97836792 34.96141981 -32.48046875 36.4375 C-33.75857422 37.675 -33.75857422 37.675 -35.0625 38.9375 C-35.83722656 39.70964844 -36.61195312 40.48179688 -37.41015625 41.27734375 C-40.89155697 43.59302658 -42.86931259 43.44538067 -47 43 C-48.31062862 42.65535998 -49.61422904 42.2830731 -50.91015625 41.88671875 C-58.50328853 39.46174313 -58.50328853 39.46174313 -66.01953125 41.02099609 C-70.01045545 43.99285284 -73.29291934 47.622339 -76.54736328 51.36621094 C-78.3837969 53.43165863 -80.38871873 55.21997836 -82.5 57 C-84.2491822 58.49183983 -85.97369106 59.97488407 -87.63671875 61.5625 C-89.1875 63 -89.1875 63 -92 65 C-94.875 64.8125 -94.875 64.8125 -97 64 C-97.8125 62.3125 -97.8125 62.3125 -98 60 C-96.40341182 58.13731379 -94.81573584 56.63374865 -93 55 C-91.55753048 53.54658194 -90.12047649 52.08777843 -88.6875 50.625 C-85.26233471 47.20548679 -81.79349567 43.89427854 -78.08984375 40.77734375 C-76.56445526 39.48005074 -75.08264827 38.13100948 -73.62890625 36.75390625 C-67.47688784 31.21612993 -67.47688784 31.21612993 -63.59765625 30.6484375 C-60.97871237 30.89462671 -58.55568908 31.37396665 -56 32 C-48.32287959 34.28928435 -48.32287959 34.28928435 -40.8984375 32.81640625 C-39.10343056 30.97631922 -37.57290717 29.03167176 -36 27 C-34.75720773 25.84409787 -33.48500746 24.71912831 -32.1875 23.625 C-27.39251625 19.48944427 -22.69776767 15.24531874 -18 11 C-18.31710938 10.39671875 -18.63421875 9.7934375 -18.9609375 9.171875 C-20.09942564 6.79217799 -20.56784843 4.5929094 -21 2 C-15.07084183 -0.96457908 -6.5245215 -0.12310418 0 0 Z " fill="#020202" transform="translate(108,4)"/>
<path d="M0 0 C3.07666106 2.17176075 3.78029582 2.98254055 5.1875 6.25 C4.28722412 7.28531726 3.36656965 8.30294165 2.4375 9.3125 C1.67179687 10.16521484 1.67179687 10.16521484 0.890625 11.03515625 C-0.8125 12.25 -0.8125 12.25 -2.90234375 12 C-4.8125 11.25 -4.8125 11.25 -6.625 10.1875 C-10.42838304 8.5574787 -14.22320184 8.73455195 -18.125 10 C-20.34034856 11.64099893 -20.9752966 12.59885591 -21.8125 15.25 C-22.24026546 19.74153738 -22.35405919 22.14333556 -20.375 26.1875 C-16.29733804 29.4695206 -11.8859953 29.25 -6.8125 29.25 C-6.8125 25.62 -6.8125 21.99 -6.8125 18.25 C-3.1825 18.25 0.4475 18.25 4.1875 18.25 C4.1875 24.19 4.1875 30.13 4.1875 36.25 C-4.37685068 40.40241245 -12.86417587 42.11391552 -22.2734375 39.58984375 C-28.30139068 36.92230125 -32.4250604 32.2140755 -35.1875 26.3125 C-36.61271387 19.32895204 -36.1711771 13.54751957 -32.8125 7.25 C-25.04214537 -2.51844583 -11.43368135 -5.26743638 0 0 Z " fill="#020202" transform="translate(291.8125,35.75)"/>
<path d="M0 0 C2 2 2 2 2 5 C-0.75 7.75 -0.75 7.75 -4 10 C-6.49516266 9.92661286 -7.68226009 9.18626133 -9.8125 7.9375 C-13.04740654 6.55111148 -15.51883558 6.63356164 -19 7 C-21.75329021 8.79562405 -23.52627461 10.05254922 -25 13 C-25.3751455 17.97067782 -25.15878799 21.05151502 -22 25 C-18.41196627 27.7906929 -14.33960021 27.14465334 -10 27 C-10 23.37 -10 19.74 -10 16 C-6.37 16 -2.74 16 1 16 C1 21.94 1 27.88 1 34 C-7.55081932 38.14585179 -16.11048313 39.91914555 -25.49609375 37.3046875 C-30.95884152 34.84696733 -33.96960826 31.04558761 -37.25 26.125 C-39.51139783 19.71770616 -39.57667556 13.29366711 -37 7 C-34.12898048 2.55804527 -30.41674523 -1.81459859 -25.27734375 -3.59765625 C-16.23004817 -5.19606353 -7.74725283 -5.16483522 0 0 Z " fill="#020202" transform="translate(157,84)"/>
<path d="M0 0 C1.65322266 0.01740234 1.65322266 0.01740234 3.33984375 0.03515625 C4.44457031 0.04417969 5.54929687 0.05320313 6.6875 0.0625 C7.54214844 0.07410156 8.39679688 0.08570313 9.27734375 0.09765625 C11.84342365 5.77478716 14.40661918 11.45321363 16.96777344 17.13256836 C17.84014922 19.06613951 18.71319516 20.99940844 19.58691406 22.93237305 C20.83963777 25.70413077 22.0899801 28.47695165 23.33984375 31.25 C23.73357178 32.11978989 24.1272998 32.98957977 24.53295898 33.88572693 C25.07351929 35.08685875 25.07351929 35.08685875 25.625 36.31225586 C25.94476807 37.02063095 26.26453613 37.72900604 26.59399414 38.45884705 C27.27734375 40.09765625 27.27734375 40.09765625 27.27734375 41.09765625 C22.98734375 41.09765625 18.69734375 41.09765625 14.27734375 41.09765625 C13.28734375 39.11765625 12.29734375 37.13765625 11.27734375 35.09765625 C5.66734375 34.76765625 0.05734375 34.43765625 -5.72265625 34.09765625 C-6.21765625 36.57265625 -6.21765625 36.57265625 -6.72265625 39.09765625 C-7.05265625 39.75765625 -7.38265625 40.41765625 -7.72265625 41.09765625 C-12.01265625 41.09765625 -16.30265625 41.09765625 -20.72265625 41.09765625 C-18.47216436 34.34618058 -18.47216436 34.34618058 -17.13452148 31.3112793 C-16.83758896 30.63425461 -16.54065643 29.95722992 -16.23472595 29.25968933 C-15.92007889 28.5500856 -15.60543182 27.84048187 -15.28125 27.109375 C-14.78964134 25.99366875 -14.78964134 25.99366875 -14.2881012 24.85542297 C-13.59939194 23.29422761 -12.90934173 21.73362319 -12.21801758 20.17358398 C-11.15649751 17.77689559 -10.10043506 15.3778546 -9.04492188 12.97851562 C-8.37402071 11.45949281 -7.70280786 9.9406076 -7.03125 8.421875 C-6.7145787 7.70215012 -6.39790741 6.98242523 -6.07164001 6.2408905 C-3.35241448 0.12024442 -3.35241448 0.12024442 0 0 Z M2.27734375 14.09765625 C1.28734375 17.39765625 0.29734375 20.69765625 -0.72265625 24.09765625 C1.91734375 24.09765625 4.55734375 24.09765625 7.27734375 24.09765625 C5.95734375 20.79765625 4.63734375 17.49765625 3.27734375 14.09765625 C2.94734375 14.09765625 2.61734375 14.09765625 2.27734375 14.09765625 Z " fill="#020202" transform="translate(364.72265625,33.90234375)"/>
<path d="M0 0 C4.29 0 8.58 0 13 0 C15.42571715 5.51554647 17.84667244 11.03314828 20.26318359 16.55273438 C21.08641168 18.43124141 21.91095214 20.30917387 22.73681641 22.18652344 C23.92172905 24.88067054 25.10195028 27.57682963 26.28125 30.2734375 C26.65310425 31.11619232 27.0249585 31.95894714 27.40808105 32.82723999 C27.74843384 33.60789825 28.08878662 34.38855652 28.43945312 35.19287109 C28.7414563 35.88126068 29.04345947 36.56965027 29.35461426 37.27890015 C30 39 30 39 30 41 C25.71 41 21.42 41 17 41 C16.34 38.69 15.68 36.38 15 34 C9.39 34 3.78 34 -2 34 C-2.66 36.31 -3.32 38.62 -4 41 C-8.29 41 -12.58 41 -17 41 C-14.32191471 32.16928754 -10.54355658 23.86003714 -6.8125 15.4375 C-6.15132519 13.93701085 -5.49051481 12.43636106 -4.83007812 10.93554688 C-3.22424946 7.28849819 -1.61349872 3.64366145 0 0 Z M6 14 C4.68 17.3 3.36 20.6 2 24 C4.97 24 7.94 24 11 24 C9.68 20.7 8.36 17.4 7 14 C6.67 14 6.34 14 6 14 Z " fill="#020202" transform="translate(133,34)"/>
<path d="M0 0 C10.56 0 21.12 0 32 0 C32 3.3 32 6.6 32 10 C25.4 10 18.8 10 12 10 C12 11.98 12 13.96 12 16 C17.94 16 23.88 16 30 16 C30 18.97 30 21.94 30 25 C24.06 25 18.12 25 12 25 C12 27.31 12 29.62 12 32 C18.93 32 25.86 32 33 32 C33 34.97 33 37.94 33 41 C22.11 41 11.22 41 0 41 C0 27.47 0 13.94 0 0 Z " fill="#000000" transform="translate(250,80)"/>
<path d="M0 0 C10.56 0 21.12 0 32 0 C32 3.3 32 6.6 32 10 C25.4 10 18.8 10 12 10 C12 11.98 12 13.96 12 16 C17.94 16 23.88 16 30 16 C30 18.97 30 21.94 30 25 C24.06 25 18.12 25 12 25 C12 27.31 12 29.62 12 32 C18.93 32 25.86 32 33 32 C33 34.97 33 37.94 33 41 C22.11 41 11.22 41 0 41 C0 27.47 0 13.94 0 0 Z " fill="#000000" transform="translate(165,80)"/>
<path d="M0 0 C0.68191406 -0.01611328 1.36382812 -0.03222656 2.06640625 -0.04882812 C7.11230243 -0.05363374 10.60524327 1.0762235 15.125 3.3125 C14.135 6.2825 13.145 9.2525 12.125 12.3125 C10.619375 11.961875 9.11375 11.61125 7.5625 11.25 C3.01901347 10.3257915 -0.3675129 10.3326115 -4.875 11.3125 C-5.205 12.3025 -5.535 13.2925 -5.875 14.3125 C-4.24691406 14.65861328 -4.24691406 14.65861328 -2.5859375 15.01171875 C-1.14042007 15.34024544 0.30488141 15.66972333 1.75 16 C2.46285156 16.14888672 3.17570312 16.29777344 3.91015625 16.45117188 C9.18170039 17.68442303 12.31926698 19.41907728 16.125 23.3125 C17.86995092 27.199322 17.36537897 30.61807188 16 34.5625 C13.30809922 38.51062114 10.66623411 40.7987553 6.125 42.3125 C-3.11933796 42.94610069 -10.63045787 43.02366693 -18.875 38.3125 C-17.885 35.3425 -16.895 32.3725 -15.875 29.3125 C-13.11223823 29.83518466 -10.5489124 30.42119587 -7.875 31.3125 C-5.98029184 31.3810495 -4.0833166 31.39730372 -2.1875 31.375 C-1.19363281 31.36597656 -0.19976562 31.35695313 0.82421875 31.34765625 C1.58347656 31.33605469 2.34273437 31.32445313 3.125 31.3125 C3.455 30.3225 3.785 29.3325 4.125 28.3125 C3.279375 28.15394531 2.43375 27.99539062 1.5625 27.83203125 C-5.32766106 26.4148504 -11.42163893 24.95398428 -16.875 20.3125 C-18.74081821 16.58086358 -18.42964677 12.37575499 -17.875 8.3125 C-16.24862255 4.99226056 -13.9956766 2.89589337 -10.69140625 1.17578125 C-7.10723962 0.07716707 -3.71207549 -0.01734615 0 0 Z " fill="#020202" transform="translate(217.875,33.6875)"/>
<path d="M0 0 C12.21 0 24.42 0 37 0 C37 3.3 37 6.6 37 10 C33.04 10 29.08 10 25 10 C25 20.23 25 30.46 25 41 C20.71 41 16.42 41 12 41 C12 30.77 12 20.54 12 10 C8.04 10 4.08 10 0 10 C0 6.7 0 3.4 0 0 Z " fill="#000000" transform="translate(370,80)"/>
<path d="M0 0 C2.04711914 -0.35644531 2.04711914 -0.35644531 4.53515625 -0.328125 C5.87223633 -0.32039063 5.87223633 -0.32039063 7.23632812 -0.3125 C8.16896484 -0.291875 9.10160156 -0.27125 10.0625 -0.25 C11.46725586 -0.24226563 11.46725586 -0.24226563 12.90039062 -0.234375 C19.84609661 -0.15390339 19.84609661 -0.15390339 21 1 C21.21832989 5.39998945 21.18579146 9.80534812 21.18530273 14.21020508 C21.18748751 16.42483782 21.20563531 18.63897123 21.22460938 20.85351562 C21.22754356 22.25520662 21.22952819 23.6569 21.23046875 25.05859375 C21.23457764 26.34048584 21.23868652 27.62237793 21.24291992 28.94311523 C21 32 21 32 19 34 C16.15002778 34.17245986 13.40937679 34.23216611 10.5625 34.1875 C9.78583984 34.18685547 9.00917969 34.18621094 8.20898438 34.18554688 C4.89739425 34.15987563 2.16057255 34.05352418 -1 33 C-3.28128029 28.43743942 -2.18502621 22.07192821 -2.1875 17.0625 C-2.19974609 15.76119141 -2.21199219 14.45988281 -2.22460938 13.11914062 C-2.22654297 11.87455078 -2.22847656 10.62996094 -2.23046875 9.34765625 C-2.23457764 8.20304932 -2.23868652 7.05844238 -2.24291992 5.87915039 C-2 3 -2 3 0 0 Z " fill="#000000" transform="translate(4,88)"/>
<path d="M0 0 C3.96 0 7.92 0 12 0 C12 10.23 12 20.46 12 31 C18.20792914 30.96041973 18.20792914 30.96041973 24.41577148 30.90991211 C25.18477783 30.90741455 25.95378418 30.90491699 26.74609375 30.90234375 C27.93223267 30.89448853 27.93223267 30.89448853 29.14233398 30.88647461 C31 31 31 31 32 32 C32 34.97 32 37.94 32 41 C21.44 41 10.88 41 0 41 C0 27.47 0 13.94 0 0 Z " fill="#000000" transform="translate(394,34)"/>
<path d="M0 0 C3.96 0 7.92 0 12 0 C12 13.53 12 27.06 12 41 C8.04 41 4.08 41 0 41 C0 27.47 0 13.94 0 0 Z " fill="#000000" transform="translate(239,34)"/>
<path d="M0 0 C3.96 0 7.92 0 12 0 C12 13.53 12 27.06 12 41 C8.04 41 4.08 41 0 41 C0 27.47 0 13.94 0 0 Z " fill="#000000" transform="translate(166,34)"/>
</svg>
