<?xml version="1.0" encoding="UTF-8"?>
<svg version="1.1" xmlns="http://www.w3.org/2000/svg" width="500" height="500">
<path d="M0 0 C165 0 330 0 500 0 C500 165 500 330 500 500 C335 500 170 500 0 500 C0 335 0 170 0 0 Z " fill="#3199CB" transform="translate(0,0)"/>
<path d="M0 0 C1.28821152 -0.00637985 2.57642303 -0.0127597 3.90367126 -0.01933289 C5.31151288 -0.02086154 6.71935501 -0.02197551 8.12719727 -0.02270508 C9.57064345 -0.02591852 11.0140893 -0.02928266 12.45753479 -0.03279114 C15.48292801 -0.03877846 18.50829268 -0.04063143 21.53369141 -0.04003906 C25.40859367 -0.03993742 29.2833128 -0.05359369 33.15817165 -0.07081127 C36.1393162 -0.08193418 39.12041649 -0.08395819 42.10157967 -0.08342934 C43.53010757 -0.08460886 44.95863663 -0.08902909 46.38714409 -0.0967617 C48.38567619 -0.10656764 50.38426201 -0.10241773 52.3828125 -0.09765625 C54.08799294 -0.09979378 54.08799294 -0.09979378 55.82762146 -0.10197449 C58.74313786 0.14416904 60.35350516 0.51402595 62.75610352 2.14526367 C65.57112566 6.3677969 65.88009223 10.07869303 65.88753128 15.0697546 C65.89137243 16.04091022 65.89521357 17.01206585 65.89917111 18.01265043 C65.89830463 19.07178618 65.89743815 20.13092193 65.89654541 21.22215271 C65.89951653 22.35333544 65.90248765 23.48451818 65.90554881 24.64997917 C65.91423528 28.44846362 65.91574401 32.24691656 65.91723633 36.04541016 C65.92132704 38.76544378 65.92686849 41.4854741 65.93228149 44.20550537 C65.94585045 51.60000279 65.95188687 58.99449477 65.95629215 66.38900256 C65.95905617 71.00614776 65.96329373 75.62329086 65.96779633 80.24043465 C65.97998552 93.02495282 65.99028656 105.80946933 65.99367142 118.59399319 C65.99400077 119.8207582 65.99400077 119.8207582 65.99433677 121.07230634 C65.99466419 122.30198734 65.99466419 122.30198734 65.99499822 123.55651039 C65.99544168 125.21768661 65.99588825 126.87886284 65.99633789 128.54003906 C65.99655932 129.36403798 65.99678075 130.18803691 65.99700889 131.03700549 C66.00095892 144.39573632 66.01842074 157.75441268 66.04169741 171.11312246 C66.06540427 184.82940241 66.07787291 198.54565502 66.07903934 212.2619558 C66.0799563 219.96281374 66.0857143 227.66360063 66.10385895 235.36443901 C66.11925074 241.91993666 66.12438576 248.47534128 66.11612085 255.03085356 C66.11221142 258.37545922 66.11478662 261.71972496 66.12717819 265.06433296 C66.13982597 268.69018149 66.13405956 272.31554628 66.12359619 275.94139099 C66.1356808 277.52674854 66.1356808 277.52674854 66.14800954 279.14413351 C66.11151633 284.53663607 65.90466527 288.54109457 62.75610352 293.14526367 C58.64071479 295.86918303 55.37674919 296.52252628 50.49462891 296.53344727 C49.27638931 296.54290375 48.05814972 296.55236023 46.80299377 296.56210327 C44.84812294 296.55299423 44.84812294 296.55299423 42.85375977 296.54370117 C41.4890477 296.54572494 40.12433669 296.54863889 38.7596283 296.55239868 C35.90589047 296.55680935 33.0524353 296.55043299 30.19873047 296.53637695 C26.55610373 296.51930166 22.91414105 296.52912305 19.27153873 296.54709435 C16.45494158 296.55798043 13.63849956 296.55446362 10.82189751 296.54671097 C8.83064718 296.54375955 6.83939062 296.55281037 4.84815979 296.56210327 C-6.7451769 296.47234323 -6.7451769 296.47234323 -12.24389648 293.14526367 C-14.37948145 289.94188622 -14.49693426 289.11894763 -14.51398945 285.43842697 C-14.52330504 284.46490335 -14.53262063 283.49137973 -14.54221851 282.4883554 C-14.54233013 281.41629419 -14.54244176 280.34423297 -14.54255676 279.23968506 C-14.55046586 278.10274964 -14.55837496 276.96581421 -14.56652373 275.7944262 C-14.59065514 271.96442046 -14.60046941 268.13451048 -14.61035156 264.30444336 C-14.62346451 261.56661371 -14.63952351 258.82880302 -14.65539551 256.09098816 C-14.69218765 249.41346463 -14.71803502 242.73594141 -14.73978565 236.05835357 C-14.75758155 230.63036042 -14.77886878 225.20239185 -14.80264854 219.77442169 C-14.80601909 219.00252344 -14.80938964 218.23062518 -14.81286233 217.43533607 C-14.81971135 215.86729778 -14.82656248 214.2992595 -14.83341571 212.73122123 C-14.89719908 198.01553718 -14.94796146 183.29982903 -14.99483623 168.58408287 C-15.03812653 155.12238325 -15.09788565 141.66081576 -15.1654313 128.19921789 C-15.23461829 114.38020186 -15.29259294 100.56118029 -15.33846968 86.74206662 C-15.36443078 78.98244186 -15.3948503 71.22289595 -15.43702126 63.46334076 C-15.47281165 56.855523 -15.49802029 50.24776827 -15.5095968 43.63986197 C-15.51579318 40.26879468 -15.52847092 36.89808755 -15.551054 33.52706718 C-15.57473211 29.87084845 -15.57980533 26.21506146 -15.58015442 22.55877686 C-15.59141965 21.49563853 -15.60268489 20.43250021 -15.61429149 19.33714557 C-15.58924346 12.71744387 -15.0107063 7.60377594 -10.74389648 2.27026367 C-7.39956342 -0.23798613 -4.0080602 0.01344897 0 0 Z " fill="#FEFEFE" transform="translate(368.243896484375,151.854736328125)"/>
<path d="M0 0 C1.74199425 -0.01868637 1.74199425 -0.01868637 3.5191803 -0.03775024 C5.37258278 -0.010121 5.37258278 -0.010121 7.26342773 0.01806641 C8.54885971 0.0170694 9.83429169 0.01607239 11.15867615 0.01504517 C13.86977593 0.01522384 16.57967665 0.03591949 19.29052734 0.07226562 C22.75302246 0.11768809 26.21377282 0.11871362 29.67648411 0.10523033 C32.9973285 0.09691511 36.31764325 0.12090953 39.63842773 0.14306641 C40.87605362 0.14124359 42.1136795 0.13942078 43.3888092 0.13754272 C54.41572195 0.31904977 54.41572195 0.31904977 58.88452148 4.74462891 C61.09039986 8.95484488 61.16934363 12.94473301 61.1452179 17.59458923 C61.15095622 18.77071041 61.15095622 18.77071041 61.15681046 19.9705916 C61.16711847 22.59447653 61.16315252 25.21814173 61.15917969 27.84204102 C61.16352736 29.72464704 61.1687107 31.60725129 61.17466736 33.48985291 C61.18806223 38.60138685 61.1886355 43.71284687 61.18610406 48.82439494 C61.18503473 53.09139494 61.18991671 57.35837997 61.19470948 61.62537676 C61.20580624 71.69142467 61.20624104 81.75743526 61.20019531 91.82348633 C61.19415369 102.20894882 61.20647098 112.5942759 61.22776538 122.97971529 C61.24537577 131.89619306 61.25138365 140.8126277 61.24812764 149.72912222 C61.24631383 155.05460483 61.24896082 160.37999082 61.26284218 165.70545769 C61.2754068 170.71316751 61.27348931 175.72066604 61.26043129 180.72837257 C61.25806303 182.56578518 61.26080912 184.40321259 61.26905441 186.24060822 C61.27950246 188.74987949 61.27143708 191.25843926 61.25874329 193.76768494 C61.26611757 194.49385936 61.27349186 195.22003379 61.2810896 195.9682135 C61.23163115 200.61909057 60.33432214 203.79374756 57.88452148 207.74462891 C54.37018171 210.52575121 51.73102429 211.1217994 47.30322266 211.1328125 C46.20825974 211.14226898 45.11329681 211.15172546 43.9851532 211.16146851 C42.22411003 211.15235947 42.22411003 211.15235947 40.42749023 211.14306641 C38.60209465 211.14737167 38.60209465 211.14737167 36.73982239 211.15176392 C34.16687556 211.153804 31.5939132 211.14827811 29.02099609 211.13574219 C25.09689297 211.11973039 21.17382638 211.13557246 17.24975586 211.15478516 C14.74649839 211.1528019 12.24324156 211.14895653 9.73999023 211.14306641 C8.57203415 211.1491391 7.40407806 211.15521179 6.20072937 211.16146851 C-0.23660903 211.10634943 -5.35126677 210.73837534 -11.11547852 207.74462891 C-13.75851304 204.16128832 -13.40906383 200.09206843 -13.40309143 195.82510376 C-13.41306315 194.61963758 -13.41306315 194.61963758 -13.42323631 193.38981855 C-13.4429397 190.69376431 -13.44830916 187.99787607 -13.45361328 185.30175781 C-13.46450743 183.37003647 -13.47617903 181.43831937 -13.48857117 179.50660706 C-13.51908922 174.25661742 -13.53609692 169.00667163 -13.54878736 163.75661135 C-13.55686955 160.47736601 -13.56704991 157.19813331 -13.57780266 153.91889572 C-13.61052175 143.66092389 -13.63442384 133.4029827 -13.64661652 123.14496577 C-13.66087955 111.29927548 -13.70478003 99.45418014 -13.77411801 87.60868704 C-13.82585775 78.45443979 -13.85078639 69.30036198 -13.85543865 60.1459707 C-13.85884032 54.67717639 -13.87375416 49.20898379 -13.91671944 43.740345 C-13.95642208 38.59698677 -13.9628969 33.45465159 -13.94381905 28.31118584 C-13.94255115 26.42375387 -13.95326083 24.53627009 -13.97683334 22.64898491 C-14.00719717 20.07080398 -13.99434128 17.49629183 -13.97071838 14.91812134 C-13.98974403 14.17181005 -14.00876969 13.42549876 -14.02837187 12.65657198 C-13.96123555 9.57779598 -13.60071058 7.32722086 -11.60689873 4.93335855 C-7.82240804 1.56102105 -5.22909304 -0.00648864 0 0 Z " fill="#FDFEFE" transform="translate(271.115478515625,237.25537109375)"/>
<path d="M0 0 C1.376968 -0.0049926 1.376968 -0.0049926 2.78175354 -0.01008606 C4.71037296 -0.01511622 6.63900098 -0.01749561 8.56762695 -0.01733398 C11.49249786 -0.01952271 14.41699234 -0.03772655 17.34179688 -0.05664062 C19.22786331 -0.05957507 21.11393151 -0.06155952 23 -0.0625 C24.29108925 -0.07327827 24.29108925 -0.07327827 25.60826111 -0.08427429 C40.25016787 -0.03007096 40.25016787 -0.03007096 45.62890625 4.16796875 C48.11515198 7.62709325 48.19510465 9.70726246 48.20684814 13.9487915 C48.21255829 15.17975052 48.21826843 16.41070953 48.22415161 17.67897034 C48.22539704 19.05062856 48.22652212 20.4222869 48.22753906 21.79394531 C48.2321664 23.23276395 48.23719094 24.67158136 48.24258423 26.11039734 C48.25572036 30.02584568 48.2621558 33.94127687 48.26659489 37.85674381 C48.26952429 40.3027806 48.27362889 42.74881268 48.27809906 45.19484711 C48.29177857 52.84722283 48.30144242 60.49958781 48.30530095 68.15197492 C48.30977985 76.98644146 48.32731797 85.82075313 48.35630155 94.65517259 C48.37792255 101.48242963 48.38800549 108.30964313 48.38934207 115.13693404 C48.39039001 119.21498929 48.39629506 123.29289906 48.41416168 127.37091827 C48.43064916 131.20898856 48.43279468 135.04680414 48.42402267 138.88489723 C48.4232526 140.29176071 48.42759121 141.69863791 48.43748093 143.10546684 C48.4502138 145.03000662 48.44252705 146.95464887 48.43389893 148.87921143 C48.43609877 150.49306166 48.43609877 150.49306166 48.43834305 152.13951492 C47.90160133 156.50987437 46.33790652 159.87627663 43.24557495 163.01771545 C40.42676113 164.50559929 38.38368788 164.55546285 35.19970703 164.57202148 C34.01813019 164.58470566 32.83655334 164.59738983 31.61917114 164.61045837 C30.34621185 164.60752274 29.07325256 164.6045871 27.76171875 164.6015625 C25.79390945 164.60942528 25.79390945 164.60942528 23.78634644 164.6174469 C21.01062398 164.62637404 18.23518927 164.62396072 15.45947266 164.61401367 C11.91294928 164.60253921 8.36742386 164.62271225 4.82103157 164.65193081 C1.42620882 164.6747602 -1.96838367 164.6678229 -5.36328125 164.6640625 C-6.63219208 164.67529648 -7.90110291 164.68653046 -9.20846558 164.69810486 C-20.23515398 164.61102475 -20.23515398 164.61102475 -24.93359375 160.16796875 C-26.27004382 157.49506862 -26.08292199 155.42618097 -26.11199951 152.43183899 C-26.12612381 151.21073929 -26.14024811 149.98963959 -26.15480042 148.73153687 C-26.16549016 147.37091155 -26.17606046 146.01028528 -26.18652344 144.6496582 C-26.20100951 143.22231155 -26.215886 141.79496882 -26.23112488 140.36763 C-26.27106895 136.4831405 -26.3043883 132.59862203 -26.33571148 128.71405435 C-26.35542396 126.28676492 -26.37627312 123.85948782 -26.39746857 121.43221092 C-26.46346236 113.83699603 -26.52542169 106.24176396 -26.58164763 98.64647037 C-26.64657228 89.88097561 -26.72467954 81.11573066 -26.81432986 72.35045463 C-26.88283334 65.57506016 -26.93959511 58.79963019 -26.98749661 52.024059 C-27.01635972 47.9777767 -27.05015426 43.93168024 -27.09615326 39.88555336 C-27.13913045 36.0762965 -27.16749285 32.26720375 -27.18480873 28.45774651 C-27.19363072 27.06255393 -27.20762817 25.6673826 -27.22729301 24.27230072 C-27.43496598 9.08126713 -27.43496598 9.08126713 -21.80859375 2.79296875 C-15.45770874 -0.79666191 -7.13524247 0.00920343 0 0 Z " fill="#FEFEFE" transform="translate(187.93359375,283.83203125)"/>
<path d="M0 0 C1.62890625 1.41796875 1.62890625 1.41796875 2.41918945 4.54296875 C2.66201061 9.02964796 1.56004835 11.91981274 -0.38671875 15.8359375 C-0.71364716 16.52750946 -1.04057556 17.21908142 -1.37741089 17.93161011 C-2.44025892 20.16560816 -3.52893359 22.38567161 -4.62109375 24.60546875 C-5.36113807 26.13503366 -6.10055628 27.66490165 -6.83935547 29.19506836 C-8.65654889 32.9398259 -10.50062077 36.67042953 -12.36047363 40.39416504 C-13.28327943 42.24211737 -14.20006408 44.09307332 -15.11621094 45.94433594 C-16.54606239 48.80672486 -18.00840274 51.64780439 -19.49609375 54.48046875 C-19.90762695 55.29346436 -20.31916016 56.10645996 -20.74316406 56.9440918 C-23.57293241 62.13142387 -23.57293241 62.13142387 -27.515625 63.546875 C-30.37109375 63.41796875 -30.37109375 63.41796875 -32.93359375 61.29296875 C-34.14015625 59.86984375 -34.14015625 59.86984375 -35.37109375 58.41796875 C-37.02919161 56.7427771 -38.69469294 55.07484409 -40.37109375 53.41796875 C-49.28785794 60.83157957 -57.91636895 68.48292522 -66.37109375 76.41796875 C-67.00982422 77.01689941 -67.64855469 77.61583008 -68.30664062 78.23291016 C-71.03607028 80.79257616 -73.76511439 83.35264981 -76.49267578 85.91430664 C-81.44373487 90.56062095 -86.43208514 95.16312327 -91.4453125 99.7421875 C-94.5965396 102.62415087 -97.73513415 105.51942025 -100.87109375 108.41796875 C-106.00763739 113.16426008 -111.15781207 117.8952345 -116.3203125 122.61328125 C-118.48219511 124.59400839 -120.62754193 126.5912689 -122.765625 128.59765625 C-123.33603516 129.13068359 -123.90644531 129.66371094 -124.49414062 130.21289062 C-125.58063853 131.22904878 -126.66422421 132.24833453 -127.74414062 133.27148438 C-133.92419188 139.03900332 -139.35475647 143.70542996 -148.21582031 143.57861328 C-151.68719492 143.3198724 -154.92893493 142.34555261 -158.24609375 141.35546875 C-166.92203412 138.93001431 -175.67375333 136.97298951 -184.48980713 135.13821411 C-185.97463659 134.82875247 -187.45883242 134.51623225 -188.94232178 134.20040894 C-204.39903292 129.86791033 -204.39903292 129.86791033 -219.19165039 131.97607422 C-221.52602755 133.78192643 -223.64335685 135.70671626 -225.73095703 137.79150391 C-227.63581183 139.68048019 -229.59125398 141.50794351 -231.5546875 143.3359375 C-234.47347437 146.0562342 -237.37295715 148.79455651 -240.2578125 151.55078125 C-243.59880591 154.72310161 -247.02598883 157.77527867 -250.50708008 160.79248047 C-253.17500481 163.11900868 -255.7710417 165.51574675 -258.37109375 167.91796875 C-261.67062152 170.95765871 -264.98060982 173.97954934 -268.37109375 176.91796875 C-272.2480497 180.28014217 -276.02537485 183.74777178 -279.79980469 187.22387695 C-283.04827767 190.21359932 -286.32435351 193.16883398 -289.62109375 196.10546875 C-292.65995604 198.82012121 -295.55017278 201.6035691 -298.37109375 204.54296875 C-304.20343656 210.47033955 -310.7506703 216.04535396 -319.24609375 216.73046875 C-322.44953177 216.68924804 -323.37727739 216.41420479 -326.24609375 214.66796875 C-329.24572418 211.49188947 -330.12139172 209.55297799 -331.05859375 205.29296875 C-329.51364948 196.58510107 -320.43631715 190.38779958 -314.046875 184.7734375 C-311.07288239 182.15545568 -308.15815478 179.47930279 -305.24609375 176.79296875 C-301.37529756 173.23232277 -297.4615991 169.73089663 -293.48828125 166.28515625 C-290.26065894 163.43865539 -287.10051087 160.5190325 -283.93359375 157.60546875 C-279.96236631 153.95353598 -275.95735497 150.34101338 -271.94140625 146.73828125 C-269.02680848 144.10717019 -266.13575598 141.45138573 -263.24609375 138.79296875 C-259.32728398 135.19013231 -255.37160913 131.63800375 -251.3515625 128.1484375 C-246.32050691 123.75246585 -241.36661542 119.26597202 -236.46484375 114.7265625 C-235.02625 113.39818359 -235.02625 113.39818359 -233.55859375 112.04296875 C-232.68589844 111.23085937 -231.81320313 110.41875 -230.9140625 109.58203125 C-226.17026747 105.54506897 -223.15979926 103.9564315 -216.94580078 104.17822266 C-211.99995456 104.63875945 -207.1707818 105.61130437 -202.30859375 106.60546875 C-201.17897217 106.82960449 -200.04935059 107.05374023 -198.88549805 107.28466797 C-185.79663129 109.8964268 -172.72362645 112.60567004 -159.6796875 115.43359375 C-158.32686051 115.72022955 -156.97399896 116.00670234 -155.62109375 116.29296875 C-153.92726563 116.66035156 -153.92726563 116.66035156 -152.19921875 117.03515625 C-149.3659059 117.41867097 -147.95546365 117.58305354 -145.37109375 116.41796875 C-142.98226242 114.35588962 -142.98226242 114.35588962 -140.62109375 111.79296875 C-137.05915698 108.0586802 -133.37156641 104.6319804 -129.46777344 101.25634766 C-126.01892282 98.23237873 -122.70068099 95.07197229 -119.37109375 91.91796875 C-114.74657276 87.53731898 -110.06978474 83.2468169 -105.25976562 79.0703125 C-102.49841428 76.65448702 -99.80749432 74.16647928 -97.12109375 71.66796875 C-95.98717133 70.61698014 -94.85305257 69.56620332 -93.71875 68.515625 C-93.15687988 67.99500488 -92.59500977 67.47438477 -92.01611328 66.93798828 C-89.5399026 64.64993727 -87.04851494 62.37858048 -84.55859375 60.10546875 C-79.01071974 55.02975423 -73.52734593 49.88729491 -68.06518555 44.71948242 C-63.93289943 40.82526611 -59.70884592 37.08233119 -55.37109375 33.41796875 C-57.08728885 29.80140856 -59.21938694 27.04585152 -61.80859375 23.98046875 C-69.05432003 15.39780451 -69.05432003 15.39780451 -69.87109375 10.29296875 C-69.37109375 7.41796875 -69.37109375 7.41796875 -67.24609375 5.80078125 C-63.99132571 4.23530858 -61.46292881 3.79940256 -57.87109375 3.41796875 C-57.20456787 3.34529785 -56.53804199 3.27262695 -55.85131836 3.19775391 C-54.28798611 3.02930832 -52.72403787 2.86652731 -51.15966797 2.70800781 C-47.92650114 2.37172676 -44.69809682 2.0000552 -41.46875 1.62890625 C-8.48019903 -2.0816304 -8.48019903 -2.0816304 0 0 Z " fill="#FDFEFE" transform="translate(422.37109375,51.58203125)"/>
<path d="M0 0 C1.65235405 -0.00956978 1.65235405 -0.00956978 3.33808899 -0.01933289 C5.12402718 -0.02100212 5.12402718 -0.02100212 6.94604492 -0.02270508 C8.17054855 -0.02603348 9.39505219 -0.02936188 10.65666199 -0.03279114 C13.24994531 -0.0378583 15.84323517 -0.04019953 18.43652344 -0.04003906 C22.40009351 -0.04222178 26.36338363 -0.0603697 30.3269043 -0.0793457 C32.84578355 -0.08228042 35.36466413 -0.08426469 37.88354492 -0.08520508 C39.06809769 -0.09239059 40.25265045 -0.09957611 41.47309875 -0.10697937 C43.13963753 -0.10236443 43.13963753 -0.10236443 44.83984375 -0.09765625 C46.2985363 -0.09979378 46.2985363 -0.09979378 47.78669739 -0.10197449 C52.32897662 0.29523072 55.47695114 1.15797393 58.95567322 4.17848206 C61.29497727 8.36351188 61.18212685 11.89150198 61.14746094 16.61376953 C61.16038429 18.03418297 61.16038429 18.03418297 61.17356873 19.48329163 C61.1962455 22.60917605 61.18948629 25.73416518 61.18041992 28.86010742 C61.18565491 31.0357744 61.19193093 33.2114391 61.19920349 35.38710022 C61.20961103 39.94583825 61.20504123 44.5042642 61.19042969 49.06298828 C61.17324588 54.90192236 61.19673101 60.73987203 61.23191929 66.57869625 C61.25389174 71.07148242 61.25245203 75.56403304 61.24415398 80.05685616 C61.2433343 82.20941815 61.25020084 84.36199741 61.264925 86.5145092 C61.28236652 89.52607388 61.26783067 92.53586942 61.24511719 95.54736328 C61.26265549 96.87778152 61.26265549 96.87778152 61.2805481 98.2350769 C61.21502905 102.5098751 60.93662847 105.2919191 58.1995697 108.68263245 C54.53317584 112.17471535 52.83942393 112.27805937 47.88256836 112.33813477 C46.6808197 112.35419769 45.47907104 112.37026062 44.24090576 112.3868103 C38.73750969 112.43118636 33.23424537 112.47277212 27.73071289 112.49536133 C24.82642016 112.50868713 21.92283232 112.53651258 19.01879883 112.57739258 C15.50859832 112.6268038 11.99903592 112.65149266 8.4885025 112.65858841 C6.50648844 112.66853506 4.52464408 112.7027604 2.54290771 112.73739624 C-7.49889716 112.71382862 -7.49889716 112.71382862 -11.18969727 109.73754883 C-14.92546544 105.32821285 -14.54006521 101.75461381 -14.54711914 96.18505859 C-14.55208405 95.25645523 -14.55704895 94.32785187 -14.56216431 93.37110901 C-14.57680733 90.28930936 -14.58359174 87.20756119 -14.58911133 84.12573242 C-14.59486132 81.98822528 -14.60061907 79.85071816 -14.60638428 77.71321106 C-14.61690057 73.22661091 -14.62273902 68.74002871 -14.6262207 64.25341797 C-14.63170463 58.50311937 -14.65572795 52.75305767 -14.68419266 47.00283337 C-14.7028132 42.58563036 -14.70802435 38.16848444 -14.70955658 33.7512455 C-14.7125853 31.63134784 -14.72062118 29.51145124 -14.73374176 27.39159203 C-14.75078873 24.42542876 -14.74892512 21.45984467 -14.74243164 18.49365234 C-14.75164642 17.61709991 -14.76086121 16.74054749 -14.77035522 15.83743286 C-14.73088297 10.08408405 -13.69462306 6.8386732 -9.88598633 2.39526367 C-6.85737813 -0.1285765 -3.75806391 0.01476688 0 0 Z " fill="#FCFEFE" transform="translate(79.385986328125,335.854736328125)"/>
</svg>
