<?xml version="1.0" encoding="UTF-8"?>
<svg version="1.1" xmlns="http://www.w3.org/2000/svg" width="500" height="500">
<path d="M0 0 C0.80734085 -0.00145523 1.6146817 -0.00291046 2.44648743 -0.00440979 C5.07114362 -0.00664852 7.69566927 -0.00038457 10.3203125 0.0078125 C11.21827545 0.00969574 12.1162384 0.01157898 13.04141235 0.01351929 C25.17171791 0.04323889 37.30348988 0.12225818 49.43096924 0.39727783 C50.88770322 0.42905745 52.34454469 0.45626962 53.80145264 0.47869873 C55.82234874 0.51178593 57.84286599 0.56597564 59.86328125 0.62109375 C61.56133911 0.66036987 61.56133911 0.66036987 63.29370117 0.70043945 C68.41267672 1.40271737 71.56597823 3.01582031 74.7578125 7.0703125 C80.26770591 17.06974869 78.59416479 30.98946858 78.59248352 42.08734131 C78.59579399 43.43285833 78.59952198 44.77837437 78.603625 46.12388921 C78.61351629 49.77846525 78.61734055 53.43302489 78.62001431 57.08761239 C78.62395541 61.04533837 78.63352968 65.00305181 78.64222717 68.96076965 C78.66187028 78.48860934 78.67203562 88.0164499 78.68095496 97.54430473 C78.68535201 102.03982414 78.69071456 106.5353424 78.69594383 111.0308609 C78.7129329 125.98348623 78.72743032 140.93611087 78.73469257 155.88874435 C78.73660214 159.75737255 78.73852254 163.62600074 78.74047852 167.49462891 C78.74096226 168.45603858 78.741446 169.41744826 78.7419444 170.40799156 C78.75025788 186.00734403 78.77562736 201.60662017 78.80805919 217.20593926 C78.84113406 233.24582831 78.85914113 249.28567849 78.86233681 265.32560182 C78.86449993 274.32203316 78.87322125 283.31835266 78.89879799 292.31475067 C78.92050959 299.96859293 78.92855258 307.62229607 78.91883121 315.27616563 C78.91428981 319.17827406 78.91616381 323.08009542 78.93559265 326.98216438 C78.95324616 330.55854328 78.9522095 334.13442613 78.93669536 337.71081045 C78.93320445 339.60756491 78.94932821 341.50432472 78.96629983 343.40100646 C78.90458107 351.62486139 77.96892905 359.31556124 72.1953125 365.5703125 C63.28621805 370.63229798 55.04416191 370.5759095 45.046875 370.53125 C43.44558581 370.53327461 41.84429753 370.53618927 40.24301147 370.53994751 C36.89596734 370.54435521 33.54916439 370.53799196 30.20214844 370.52392578 C25.93663052 370.50686249 21.67168023 370.51666662 17.40618324 370.53464317 C14.10136739 370.54554704 10.79668335 370.54200414 7.49186325 370.5342598 C5.92037258 370.53227453 4.34886949 370.53465745 2.77739334 370.54169846 C-17.0138358 370.61091167 -17.0138358 370.61091167 -24.4921875 364.8828125 C-30.13721297 357.35611187 -29.98320467 350.67705531 -29.93563843 341.51307678 C-29.93909742 340.11855069 -29.94386361 338.72402734 -29.94982016 337.32950968 C-29.96232683 333.50696332 -29.95616134 329.68464209 -29.94686151 325.862095 C-29.94006991 321.73590336 -29.95055283 317.60975025 -29.95880127 313.48356628 C-29.97213997 305.40384192 -29.96926015 297.32420117 -29.96056335 289.24447352 C-29.95378728 282.67719593 -29.95286975 276.10994176 -29.9561348 269.54266167 C-29.9565945 268.60784778 -29.95705419 267.67303389 -29.95752782 266.70989231 C-29.95848701 264.81080289 -29.95945964 262.91171348 -29.9604456 261.01262408 C-29.96900001 243.205148 -29.95916479 225.39771825 -29.9430445 207.59024977 C-29.92964347 192.31380541 -29.93196754 177.03742945 -29.94580078 161.76098633 C-29.96185946 144.01863508 -29.96817372 126.27632446 -29.95896399 108.53396696 C-29.95800835 106.64157101 -29.95706524 104.74917506 -29.9561348 102.8567791 C-29.95567197 101.92570044 -29.95520914 100.99462178 -29.95473229 100.03532862 C-29.95214311 93.47718183 -29.95651191 86.91906083 -29.96357346 80.36091805 C-29.97199194 72.36685978 -29.96970106 64.37288987 -29.95373122 56.37884171 C-29.94585287 52.30089094 -29.94274943 48.22308743 -29.95267868 44.14513779 C-29.96163529 40.41012522 -29.95667698 36.67539607 -29.94074602 32.94040912 C-29.93582147 30.95338611 -29.94558617 28.96634334 -29.95591772 26.97934109 C-29.8922943 17.30966762 -28.57579379 10.15391879 -21.5546875 3.1328125 C-15.26625351 -0.43629869 -7.06628177 -0.01860738 0 0 Z " fill="#FDFDFD" transform="translate(403.5546875,127.8671875)"/>
<path d="M0 0 C1.35420298 -0.00135122 2.70840547 -0.00329554 4.06260681 -0.00579834 C6.8839892 -0.00872712 9.70524392 -0.00452439 12.52661133 0.00488281 C16.11947552 0.01628711 19.71204112 0.0096975 23.30489445 -0.00226212 C26.09580179 -0.00953247 28.88663979 -0.00716938 31.67754936 -0.00200653 C33.63879977 -0.00004862 35.60005301 -0.00605694 37.56129456 -0.01226807 C55.28855373 0.08022185 55.28855373 0.08022185 60.71484375 5.015625 C61.26011719 5.48484375 61.80539062 5.9540625 62.3671875 6.4375 C66.36792166 11.62404733 66.06417863 17.71359757 66.03804016 23.93748474 C66.04377848 25.38946899 66.04377848 25.38946899 66.04963273 26.87078625 C66.05994323 30.11109714 66.05597425 33.3512302 66.05200195 36.59155273 C66.05634948 38.91602746 66.06153276 41.24050076 66.06748962 43.56497192 C66.08088594 49.87688494 66.08145761 56.1887381 66.07892632 62.50066257 C66.07772186 68.43569927 66.08393366 74.37072589 66.08935978 80.30575956 C66.10023126 92.77818941 66.09807462 105.25059222 66.09197494 117.7230236 C66.08680547 129.12813322 66.09806267 140.53315745 66.11707316 151.93825018 C66.13645404 163.6555806 66.14470716 175.37287062 66.1409499 187.09021717 C66.13913578 193.66599926 66.14178623 200.24170311 66.15566444 206.81747246 C66.1682255 213.00053605 66.16631485 219.18342849 66.15325356 225.36648941 C66.15088455 227.63564804 66.15363402 229.90481865 66.16187668 232.17396355 C66.17231803 235.27176886 66.16426408 238.36899712 66.15156555 241.46678162 C66.15893984 242.36445375 66.16631412 243.26212589 66.17391187 244.18700022 C66.11451163 251.07613286 64.99807049 255.88627492 60.15234375 261.078125 C52.83059684 266.53027135 42.62592936 265.5727117 33.9765625 265.56640625 C32.66379837 265.57069138 31.35103424 265.5749765 29.99848938 265.57939148 C27.23080381 265.58681159 24.46324589 265.5865938 21.69555664 265.58129883 C18.18244813 265.57551735 14.66986912 265.59242325 11.15684795 265.6156435 C7.76339947 265.63408877 4.37006054 265.63019207 0.9765625 265.62890625 C-0.26756912 265.638116 -1.51170074 265.64732574 -2.79353333 265.65681458 C-11.48616862 265.61136495 -21.65148577 265.41830799 -28.84765625 259.890625 C-33.65375944 254.57861621 -33.51196953 249.55166488 -33.48335266 242.7207489 C-33.48717821 241.75431939 -33.49100376 240.78788989 -33.49494523 239.79217464 C-33.50527089 236.55109183 -33.50128384 233.31018632 -33.49731445 230.0690918 C-33.5016612 227.74638708 -33.50684423 225.42368381 -33.51280212 223.10098267 C-33.52620839 216.78894331 -33.52676889 210.47696376 -33.52423882 204.16491294 C-33.52303489 198.23018529 -33.5292451 192.29546775 -33.53467228 186.36074314 C-33.54554793 173.88637984 -33.54338544 161.41204356 -33.53728744 148.93767873 C-33.53212041 137.53318107 -33.543368 126.12876888 -33.56238566 114.72428813 C-33.58177292 103.00811455 -33.59001836 91.29198138 -33.5862624 79.57579166 C-33.58444886 73.00052172 -33.58709283 66.42533004 -33.60097694 59.85007286 C-33.61354719 53.6653779 -33.6116186 47.48085397 -33.59856606 41.29616165 C-33.59619887 39.02742391 -33.59894004 36.75867416 -33.60718918 34.48995018 C-33.61764614 31.39025228 -33.60956393 28.29112934 -33.59687805 25.19145203 C-33.60425234 24.29601061 -33.61162662 23.40056919 -33.61922437 22.47799319 C-33.55894293 15.46484713 -32.47543699 9.7931351 -27.66015625 4.390625 C-20.06478767 -1.14546254 -8.88726226 -0.02819004 0 0 Z " fill="#FEFEFE" transform="translate(291.22265625,232.734375)"/>
<path d="M0 0 C3.5108754 3.41848394 4.90736162 6.09016608 5 11 C3.17502112 20.50897337 -1.74155741 29.15848363 -6 37.75 C-6.7676886 39.31110636 -7.53485613 40.87246906 -8.30151367 42.43408203 C-9.82183038 45.52706737 -11.34697458 48.61759582 -12.87646484 51.70605469 C-14.73874147 55.46728867 -16.58445231 59.23628203 -18.42578125 63.0078125 C-19.38726512 64.9639133 -20.34943957 66.91967491 -21.3125 68.875 C-21.73724609 69.74608398 -22.16199219 70.61716797 -22.59960938 71.51464844 C-27.60331477 81.57494392 -27.60331477 81.57494392 -32.3125 84.375 C-37.19746027 85.51103727 -40.7877888 84.67883827 -45.125 82.25 C-47.98648825 80.01057441 -50.45518119 77.58766087 -53 75 C-60.7793981 81.17363056 -68.11602414 87.68591351 -75.36035156 94.46923828 C-77.45551635 96.42526616 -79.56579204 98.36450403 -81.67651367 100.30371094 C-87.34537135 105.5143103 -92.96148556 110.77909763 -98.5625 116.0625 C-106.88878193 123.91452936 -115.28452876 131.67926673 -123.8125 139.3125 C-128.04977828 143.11448806 -132.21763799 146.98622573 -136.375 150.875 C-137.01985352 151.47715332 -137.66470703 152.07930664 -138.32910156 152.69970703 C-141.27045854 155.4464045 -144.20843538 158.19640129 -147.13671875 160.95703125 C-152.39810981 165.88659939 -157.79680689 170.57314973 -163.4375 175.0625 C-164.01701416 175.52809326 -164.59652832 175.99368652 -165.19360352 176.47338867 C-172.04537779 181.83135449 -177.49389179 182.70759499 -186 182 C-190.29195552 181.22466075 -194.474822 180.12286234 -198.6875 179 C-201.22639175 178.35501518 -203.76582161 177.71517507 -206.30859375 177.0859375 C-206.98411285 176.91863129 -207.65963196 176.75132507 -208.35562134 176.57894897 C-217.59584583 174.32418153 -226.9236144 172.48322354 -236.25 170.625 C-237.11789154 170.45033203 -237.98578308 170.27566406 -238.87997437 170.09570312 C-241.3825947 169.5928367 -243.88632396 169.09598418 -246.390625 168.6015625 C-247.12712784 168.45393463 -247.86363068 168.30630676 -248.62245178 168.15420532 C-257.74292325 165.88988886 -257.74292325 165.88988886 -266.57421875 167.1953125 C-267.27160156 167.83210937 -267.96898437 168.46890625 -268.6875 169.125 C-269.51378906 169.85847656 -270.34007812 170.59195313 -271.19140625 171.34765625 C-272.11824219 172.22292969 -273.04507813 173.09820312 -274 174 C-275.15375172 175.06249832 -276.30877002 176.12362241 -277.46484375 177.18359375 C-279.90709397 179.43220702 -282.33513043 181.69491584 -284.75390625 183.96875 C-287.1497723 186.21628426 -289.57462563 188.41651111 -292.0625 190.5625 C-295.57182319 193.59088811 -298.9751759 196.72506248 -302.375 199.875 C-307.87173685 204.96772748 -313.41796258 210.00075279 -319 215 C-320.667057 216.49956619 -322.33371995 217.99957053 -324 219.5 C-326.47502234 221.72829114 -328.95071754 223.9557884 -331.4296875 226.1796875 C-336.491127 230.72366354 -341.52092262 235.30060552 -346.52758789 239.90478516 C-349.7660307 242.87974905 -353.03119465 245.8222192 -356.3125 248.75 C-359.10884981 251.24943152 -361.78990848 253.78409662 -364.375 256.5 C-371.34848068 263.58970536 -379.93603429 271.13810647 -390.25 271.5 C-396.48333949 271.36540697 -400.55639695 269.32375483 -405 265 C-408.47429866 260.52097173 -409.44530119 256.05542259 -409.53125 250.46875 C-407.94472218 243.0960619 -403.7998657 238.27565436 -398.25 233.4375 C-397.30858154 232.59082764 -397.30858154 232.59082764 -396.34814453 231.72705078 C-394.5762657 230.1385488 -392.7914717 228.56633451 -391 227 C-389.87464844 226.00806641 -389.87464844 226.00806641 -388.7265625 224.99609375 C-387.50231919 223.92423516 -386.27450058 222.85644506 -385.04296875 221.79296875 C-382.3886108 219.46342707 -379.78745884 217.07729482 -377.1875 214.6875 C-376.67719238 214.21844238 -376.16688477 213.74938477 -375.64111328 213.26611328 C-374.60557923 212.3140217 -373.5700976 211.36187311 -372.53466797 210.40966797 C-361.62493654 200.38854336 -361.62493654 200.38854336 -356.125 195.625 C-351.92338357 191.97668285 -347.85731025 188.18620976 -343.77783203 184.40283203 C-340.28946456 181.17338659 -336.75274555 178.01508514 -333.15625 174.90625 C-330.22759638 172.31715042 -327.36601823 169.65805319 -324.5 167 C-321.03712954 163.78840358 -317.57351686 160.5889722 -314 157.5 C-310.51768183 154.48589268 -307.13067911 151.37688177 -303.75 148.25 C-303.19473633 147.73816162 -302.63947266 147.22632324 -302.06738281 146.69897461 C-299.29476305 144.13954098 -296.5388 141.56578916 -293.8125 138.95703125 C-284.23796973 129.84456296 -278.12073203 125.44723954 -264.49740601 125.72817993 C-257.72335922 126.03251549 -251.17944373 127.42248326 -244.57145119 128.86963463 C-242.13974716 129.40143337 -239.70431803 129.91171703 -237.26701355 130.41719055 C-231.23237467 131.67268731 -225.20464562 132.95997176 -219.17785645 134.25256348 C-214.04374948 135.35308587 -208.9069191 136.43835195 -203.76502037 137.50190163 C-201.37015513 138.00373014 -198.98089665 138.52791715 -196.59101868 139.05290222 C-195.12708678 139.35765777 -193.66292106 139.66129298 -192.19848633 139.96362305 C-190.92548172 140.23675827 -189.65247711 140.50989349 -188.34089661 140.79130554 C-184.44225835 141.03484023 -183.04595426 140.35578997 -180 138 C-178.51942791 136.62841078 -177.08238942 135.20864122 -175.6875 133.75 C-172.99312482 130.9938879 -170.30274979 128.31926616 -167.375 125.8125 C-163.30630826 122.32388278 -159.40711535 118.66694927 -155.5 115 C-151.06396656 110.8401714 -146.6112408 106.72437382 -142.00390625 102.75390625 C-137.78465425 99.06103267 -133.68482363 95.23280603 -129.56005859 91.43505859 C-127.55723582 89.59271239 -125.55005805 87.75515315 -123.54272461 85.91772461 C-114.08916509 77.26248646 -104.67180217 68.56961085 -95.3125 59.8125 C-89.60297081 54.47125668 -83.8423001 49.19621044 -78 44 C-78.61034444 40.78465734 -79.68449854 38.77124907 -81.65234375 36.171875 C-82.44608398 35.09486328 -82.44608398 35.09486328 -83.25585938 33.99609375 C-84.36805995 32.51057614 -85.48518005 31.0287278 -86.60742188 29.55078125 C-90.13199846 24.74570844 -92.11512804 20.93052482 -93 15 C-91.91189559 11.31253506 -90.90960819 8.90960819 -88.1875 6.1875 C-83.56772489 3.67962208 -78.95350239 2.72341527 -73.7578125 2.25390625 C-72.54182373 2.14022705 -71.32583496 2.02654785 -70.07299805 1.90942383 C-68.77015869 1.79493896 -67.46731934 1.6804541 -66.125 1.5625 C-64.75751034 1.43772732 -63.39007946 1.31230895 -62.02270508 1.1862793 C-59.15456321 0.92258151 -56.28611726 0.66254991 -53.41748047 0.40429688 C-49.00665212 0.00430037 -44.5989973 -0.42536302 -40.19140625 -0.859375 C-38.04844287 -1.06831559 -35.90542887 -1.27672757 -33.76239014 -1.4848938 C-32.39559774 -1.61835658 -31.02893454 -1.75315012 -29.66241455 -1.88937378 C-7.11849579 -4.12872756 -7.11849579 -4.12872756 0 0 Z " fill="#FAFAFA" transform="translate(466,8)"/>
<path d="M0 0 C0.78601593 -0.00276947 1.57203186 -0.00553894 2.38186646 -0.00839233 C33.50441236 -0.0882509 33.50441236 -0.0882509 40.1875 4.125 C46.07950787 10.01700787 47.43518058 15.3375008 47.44819641 23.51229858 C47.45393473 24.59570477 47.45393473 24.59570477 47.45978898 25.70099795 C47.47006889 28.10982238 47.46613642 30.51840621 47.4621582 32.92724609 C47.46650747 34.65897338 47.47169134 36.39069875 47.47764587 38.12242126 C47.49102449 42.81875606 47.49161577 47.51501032 47.48908257 52.21136045 C47.48801202 56.13524733 47.49289844 60.05911796 47.497688 63.98300135 C47.50877941 73.24226068 47.50922275 82.50147943 47.50317383 91.76074219 C47.49713452 101.3049273 47.50944481 110.84896498 47.5307439 120.39312494 C47.54837192 128.5945865 47.55435933 136.79600118 47.55110615 144.99748099 C47.54929495 149.89265237 47.55191315 154.78771859 47.56582069 159.68287277 C47.57841381 164.28760726 47.57644089 168.8921123 47.56340981 173.49684334 C47.56104765 175.18344895 47.56376576 176.87007079 47.57203293 178.55665779 C47.65556073 196.92682122 47.65556073 196.92682122 41.8125 204 C35.96846124 208.73088852 29.39409326 209.24340718 22.06542969 209.27026367 C20.87689392 209.27664352 19.68835815 209.28302338 18.46380615 209.28959656 C17.19184387 209.29070938 15.91988159 209.2918222 14.609375 209.29296875 C13.27427129 209.29618772 11.93916793 209.29955226 10.60406494 209.30305481 C7.81009098 209.30902637 5.01614786 209.31089682 2.22216797 209.31030273 C-1.33257821 209.3102014 -4.88712336 209.32383276 -8.44182205 209.34107494 C-11.1993091 209.3522753 -13.95674884 209.35421947 -16.71425629 209.35369301 C-18.65385931 209.35542476 -20.59344757 209.36621589 -22.53302002 209.37724304 C-41.74794302 209.32802564 -41.74794302 209.32802564 -48.8125 203.125 C-53.04148385 196.70861072 -52.93494805 189.23652748 -52.95294189 181.77639771 C-52.95591302 181.08241406 -52.95888414 180.38843042 -52.9619453 179.67341697 C-52.97054442 177.37227188 -52.97213298 175.07117935 -52.97363281 172.77001953 C-52.97826708 171.11020804 -52.98329255 169.4503976 -52.98867798 167.79058838 C-53.00174196 163.29879877 -53.0082347 158.80702407 -53.01268864 154.31521845 C-53.01562799 151.50495233 -53.01973431 148.69469021 -53.02419281 145.88442612 C-53.03784951 137.07982883 -53.04752611 128.27524077 -53.0513947 119.47063363 C-53.05587654 109.32828433 -53.07343797 99.18606972 -53.1023953 89.04376137 C-53.12404189 81.18787968 -53.13410051 73.33203583 -53.13543582 65.47612464 C-53.13648135 60.79105872 -53.14233589 56.10611973 -53.16025543 51.42108536 C-53.1767886 47.01331475 -53.17886629 42.60576582 -53.17011642 38.19797516 C-53.16934896 36.5863803 -53.17365021 34.97477325 -53.18357468 33.36320877 C-53.29835653 13.55297992 -53.29835653 13.55297992 -47.5 6.1875 C-42.11264459 2.05301794 -37.46817576 0.63544943 -30.75 0.4375 C-29.50827026 0.38843506 -29.50827026 0.38843506 -28.24145508 0.33837891 C-18.83235543 0.02696662 -9.41342523 0.02193123 0 0 Z " fill="#FDFDFD" transform="translate(193.8125,288.875)"/>
<path d="M0 0 C1.04939758 -0.00744736 1.04939758 -0.00744736 2.11999512 -0.01504517 C4.43523138 -0.02965213 6.75039904 -0.03646775 9.06567383 -0.04199219 C10.67889914 -0.04774662 12.29212444 -0.05350432 13.90534973 -0.05926514 C17.29058144 -0.06977218 20.67578943 -0.0756162 24.06103516 -0.07910156 C28.38400757 -0.08457342 32.70666296 -0.10857446 37.02953625 -0.13707352 C40.36427197 -0.15576731 43.69893253 -0.16090916 47.0337162 -0.16243744 C48.62641437 -0.16545134 50.21911161 -0.17343695 51.81175804 -0.18662262 C69.35880429 -0.3214783 69.35880429 -0.3214783 76.46020508 4.91113281 C80.87942626 11.03005444 80.38193272 18.34316309 80.37573242 25.5690918 C80.38244965 26.6984314 80.38916687 27.827771 80.39608765 28.99133301 C80.4150389 32.71334264 80.41899016 36.43517173 80.42114258 40.15722656 C80.42757149 42.75122654 80.43429992 45.34522579 80.4413147 47.93922424 C80.45327957 53.37201936 80.45708207 58.80474316 80.45581055 64.23754883 C80.45460887 70.50256216 80.47572406 76.76723115 80.50729787 83.03215736 C80.53667281 89.07793655 80.54378481 95.12352968 80.54259109 101.16938972 C80.54494842 103.73338288 80.5537793 106.29737869 80.56925583 108.86132622 C80.58888836 112.4491003 80.58308791 116.03599047 80.57104492 119.6237793 C80.58228394 120.67805618 80.59352295 121.73233307 80.60510254 122.81855774 C80.54050227 130.40625923 79.12854549 135.94871793 73.83520508 141.53613281 C66.36038357 145.9530728 58.08742577 145.45452224 49.67114258 145.42675781 C48.38390289 145.42867126 47.09666321 145.43058472 45.77041626 145.43255615 C43.05221725 145.43549193 40.33415034 145.43126417 37.6159668 145.421875 C34.17374672 145.41054991 30.73184106 145.41700533 27.2896328 145.42901993 C23.95844609 145.4380991 20.62733814 145.43168757 17.29614258 145.42675781 C16.08107025 145.43080627 14.86599792 145.43485474 13.61410522 145.43902588 C-8.83621239 145.31850638 -8.83621239 145.31850638 -14.60229492 140.97363281 C-19.96742582 134.44847362 -20.36480209 128.5884338 -20.37890625 120.42749023 C-20.39231049 119.36963821 -20.40571472 118.31178619 -20.41952515 117.22187805 C-20.45979717 113.73676132 -20.47884411 110.25189915 -20.49682617 106.76660156 C-20.5187686 104.33432628 -20.54170743 101.90205979 -20.56559753 99.46980286 C-20.61242743 94.37499342 -20.64908821 89.28024337 -20.67822266 84.18530273 C-20.71600796 77.67211242 -20.77602614 71.15936309 -20.84334278 64.64641857 C-20.89328895 59.62344963 -20.93285283 54.60044062 -20.96918297 49.57735634 C-20.98749705 47.17688991 -21.00865146 44.77644334 -21.0327549 42.37602806 C-21.06467797 39.01164697 -21.08296337 35.64745388 -21.09765625 32.28295898 C-21.10948441 31.30132782 -21.12131256 30.31969666 -21.13349915 29.30831909 C-21.14599115 20.57664622 -20.70181887 12.10556155 -14.91479492 5.16113281 C-9.95245734 0.68292573 -6.5898366 0.03554013 0 0 Z " fill="#FEFEFE" transform="translate(43.914794921875,352.8388671875)"/>
<path d="M0 0 C3.5108754 3.41848394 4.90736162 6.09016608 5 11 C3.17502112 20.50897337 -1.74155741 29.15848363 -6 37.75 C-6.7676886 39.31110636 -7.53485613 40.87246906 -8.30151367 42.43408203 C-9.82183038 45.52706737 -11.34697458 48.61759582 -12.87646484 51.70605469 C-14.73874147 55.46728867 -16.58445231 59.23628203 -18.42578125 63.0078125 C-19.38726512 64.9639133 -20.34943957 66.91967491 -21.3125 68.875 C-21.73724609 69.74608398 -22.16199219 70.61716797 -22.59960938 71.51464844 C-27.60331477 81.57494392 -27.60331477 81.57494392 -32.3125 84.375 C-37.19746027 85.51103727 -40.7877888 84.67883827 -45.125 82.25 C-47.98648825 80.01057441 -50.45518119 77.58766087 -53 75 C-60.7793981 81.17363056 -68.11602414 87.68591351 -75.36035156 94.46923828 C-77.45551635 96.42526616 -79.56579204 98.36450403 -81.67651367 100.30371094 C-87.34537135 105.5143103 -92.96148556 110.77909763 -98.5625 116.0625 C-106.88878193 123.91452936 -115.28452876 131.67926673 -123.8125 139.3125 C-128.04977828 143.11448806 -132.21763799 146.98622573 -136.375 150.875 C-137.01985352 151.47715332 -137.66470703 152.07930664 -138.32910156 152.69970703 C-141.27045854 155.4464045 -144.20843538 158.19640129 -147.13671875 160.95703125 C-152.39810981 165.88659939 -157.79680689 170.57314973 -163.4375 175.0625 C-164.01701416 175.52809326 -164.59652832 175.99368652 -165.19360352 176.47338867 C-172.04537779 181.83135449 -177.49389179 182.70759499 -186 182 C-190.29195552 181.22466075 -194.474822 180.12286234 -198.6875 179 C-201.22639175 178.35501518 -203.76582161 177.71517507 -206.30859375 177.0859375 C-206.98411285 176.91863129 -207.65963196 176.75132507 -208.35562134 176.57894897 C-217.59584583 174.32418153 -226.9236144 172.48322354 -236.25 170.625 C-237.11789154 170.45033203 -237.98578308 170.27566406 -238.87997437 170.09570312 C-241.3825947 169.5928367 -243.88632396 169.09598418 -246.390625 168.6015625 C-247.12712784 168.45393463 -247.86363068 168.30630676 -248.62245178 168.15420532 C-257.74292325 165.88988886 -257.74292325 165.88988886 -266.57421875 167.1953125 C-267.27160156 167.83210937 -267.96898437 168.46890625 -268.6875 169.125 C-269.51378906 169.85847656 -270.34007812 170.59195313 -271.19140625 171.34765625 C-272.11824219 172.22292969 -273.04507813 173.09820312 -274 174 C-275.15375172 175.06249832 -276.30877002 176.12362241 -277.46484375 177.18359375 C-279.90709397 179.43220702 -282.33513043 181.69491584 -284.75390625 183.96875 C-287.1497723 186.21628426 -289.57462563 188.41651111 -292.0625 190.5625 C-295.57182319 193.59088811 -298.9751759 196.72506248 -302.375 199.875 C-307.87173685 204.96772748 -313.41796258 210.00075279 -319 215 C-320.667057 216.49956619 -322.33371995 217.99957053 -324 219.5 C-326.47502234 221.72829114 -328.95071754 223.9557884 -331.4296875 226.1796875 C-336.491127 230.72366354 -341.52092262 235.30060552 -346.52758789 239.90478516 C-349.7660307 242.87974905 -353.03119465 245.8222192 -356.3125 248.75 C-359.10884981 251.24943152 -361.78990848 253.78409662 -364.375 256.5 C-371.34848068 263.58970536 -379.93603429 271.13810647 -390.25 271.5 C-396.48333949 271.36540697 -400.55639695 269.32375483 -405 265 C-408.62793544 260.32290486 -409.43905191 255.80643266 -409.3359375 249.98046875 C-409 248 -409 248 -407 245 C-406.96261719 245.59167969 -406.92523438 246.18335938 -406.88671875 246.79296875 C-406.38889406 252.77662626 -405.62759483 256.75881617 -400.875 260.8125 C-395.99742313 262.82715132 -391.75536226 263.00805937 -386.7578125 261.1796875 C-378.46024832 256.73755718 -371.88073486 249.59047382 -365.17919922 243.10253906 C-361.4829969 239.53636223 -357.73988594 236.02023331 -354 232.5 C-352.97797485 231.53151123 -352.97797485 231.53151123 -351.93530273 230.54345703 C-348.00082619 226.82678788 -343.99315772 223.21802828 -339.90625 219.66992188 C-337.05169132 217.16925827 -334.27583258 214.58732103 -331.5 212 C-327.41530241 208.21011662 -323.2960265 204.47824608 -319.08203125 200.83203125 C-315.86430666 198.00067509 -312.71867933 195.09102542 -309.56445312 192.18945312 C-305.56594473 188.51283723 -301.53742622 184.8712997 -297.4921875 181.24609375 C-295.75995546 179.68491284 -294.03660424 178.11384442 -292.3203125 176.53515625 C-286.79861443 171.459261 -281.16725843 166.59906889 -275.3125 161.91015625 C-273.04498215 160.16932759 -273.04498215 160.16932759 -271.69921875 158.37524414 C-268.54133556 155.81944587 -264.80172003 157.05498116 -260.96875 157.44824219 C-253.24594543 158.45795988 -245.62501501 160.05928331 -238 161.625 C-236.23041202 161.98189307 -234.46079909 162.33866249 -232.69116211 162.6953125 C-220.73890542 165.12594739 -208.87018265 167.81847785 -197.07226562 170.91650391 C-186.69806567 173.62007319 -186.69806567 173.62007319 -176.3125 172.03125 C-167.62669847 166.27984088 -160.36331973 159.04598438 -152.89892578 151.82226562 C-150.60373102 149.61972851 -148.25332537 147.48730233 -145.875 145.375 C-141.68938817 141.64651984 -137.59060158 137.83190741 -133.5 134 C-128.55128821 129.36549214 -123.56598045 124.78131475 -118.51171875 120.26171875 C-113.86360156 116.07624464 -109.28492021 111.81530766 -104.6953125 107.56591797 C-102.98812518 105.98903153 -101.27606259 104.41761062 -99.5625 102.84765625 C-94.8597712 98.5341188 -90.17034108 94.23162992 -85.6875 89.6875 C-81.95919165 85.91287727 -78.03232622 82.44509425 -74 79 C-72.84083235 78.0003634 -71.68200745 77.00032927 -70.5234375 76 C-69.26581826 74.91644232 -68.00800449 73.83311039 -66.75 72.75 C-66.14720215 72.23018555 -65.5444043 71.71037109 -64.92333984 71.17480469 C-63.29022023 69.77342689 -61.64665552 68.38541758 -60 67 C-59.26265625 66.36578125 -58.5253125 65.7315625 -57.765625 65.078125 C-56.89164062 64.54445312 -56.89164062 64.54445312 -56 64 C-52.53465077 65.15511641 -52.11047875 65.9450773 -50.125 68.875 C-47.73326957 72.1621566 -45.87114165 74.45154334 -42 76 C-38.79083829 76.25136033 -38.79083829 76.25136033 -36 76 C-35.71801758 75.2678125 -35.43603516 74.535625 -35.14550781 73.78125 C-34.10624517 71.25795928 -32.95911566 68.90367241 -31.671875 66.5 C-31.20845703 65.62690186 -30.74503906 64.75380371 -30.26757812 63.85424805 C-29.51637695 62.44139526 -29.51637695 62.44139526 -28.75 61 C-23.82391045 51.64484445 -19.10196216 42.20487445 -14.5 32.6875 C-14.20331421 32.07688721 -13.90662842 31.46627441 -13.60095215 30.8371582 C-6.94189363 18.71873052 -6.94189363 18.71873052 -4 5.5625 C-5.20409565 2.4770049 -6.17743728 1.6795802 -9 0 C-11.61483792 -0.40430126 -11.61483792 -0.40430126 -14.45605469 -0.25585938 C-15.5206189 -0.22838623 -16.58518311 -0.20091309 -17.68200684 -0.17260742 C-23.03928033 0.10608669 -28.36568289 0.56023177 -33.703125 1.09375 C-34.86575867 1.20473022 -36.02839233 1.31571045 -37.22625732 1.43005371 C-40.90137659 1.78135869 -44.57572175 2.14001351 -48.25 2.5 C-51.93861602 2.8593121 -55.62736794 3.21690184 -59.31658936 3.56994629 C-61.60085216 3.7887127 -63.88477261 4.01109416 -66.16827393 4.2376709 C-71.81087663 4.77986171 -77.33147432 5.1196252 -83 5 C-79.64653552 2.76435702 -78.00890385 2.60637623 -74.05078125 2.25390625 C-72.21229614 2.08338745 -72.21229614 2.08338745 -70.33666992 1.90942383 C-68.99529899 1.79356194 -67.65390848 1.67792646 -66.3125 1.5625 C-64.93132608 1.43787093 -63.55022325 1.3124517 -62.16918945 1.1862793 C-59.26837604 0.92202391 -56.36721513 0.66208384 -53.46582031 0.40429688 C-49.03465919 0.00730284 -44.60712182 -0.42303461 -40.1796875 -0.859375 C-38.03961698 -1.06824945 -35.89950166 -1.27665814 -33.7593689 -1.4848938 C-32.39386483 -1.61842522 -31.02848379 -1.75322179 -29.66323853 -1.88937378 C-7.11846357 -4.12870887 -7.11846357 -4.12870887 0 0 Z " fill="#030303" transform="translate(466,8)"/>
<path d="M0 0 C0.80734085 -0.00145523 1.6146817 -0.00291046 2.44648743 -0.00440979 C5.07114362 -0.00664852 7.69566927 -0.00038457 10.3203125 0.0078125 C11.21827545 0.00969574 12.1162384 0.01157898 13.04141235 0.01351929 C25.17171791 0.04323889 37.30348988 0.12225818 49.43096924 0.39727783 C50.88770322 0.42905745 52.34454469 0.45626962 53.80145264 0.47869873 C55.82234874 0.51178593 57.84286599 0.56597564 59.86328125 0.62109375 C61.56133911 0.66036987 61.56133911 0.66036987 63.29370117 0.70043945 C68.41267672 1.40271737 71.56597823 3.01582031 74.7578125 7.0703125 C80.26770591 17.06974869 78.59416479 30.98946858 78.59248352 42.08734131 C78.59579399 43.43285833 78.59952198 44.77837437 78.603625 46.12388921 C78.61351629 49.77846525 78.61734055 53.43302489 78.62001431 57.08761239 C78.62395541 61.04533837 78.63352968 65.00305181 78.64222717 68.96076965 C78.66187028 78.48860934 78.67203562 88.0164499 78.68095496 97.54430473 C78.68535201 102.03982414 78.69071456 106.5353424 78.69594383 111.0308609 C78.7129329 125.98348623 78.72743032 140.93611087 78.73469257 155.88874435 C78.73660214 159.75737255 78.73852254 163.62600074 78.74047852 167.49462891 C78.74096226 168.45603858 78.741446 169.41744826 78.7419444 170.40799156 C78.75025788 186.00734403 78.77562736 201.60662017 78.80805919 217.20593926 C78.84113406 233.24582831 78.85914113 249.28567849 78.86233681 265.32560182 C78.86449993 274.32203316 78.87322125 283.31835266 78.89879799 292.31475067 C78.92050959 299.96859293 78.92855258 307.62229607 78.91883121 315.27616563 C78.91428981 319.17827406 78.91616381 323.08009542 78.93559265 326.98216438 C78.95324616 330.55854328 78.9522095 334.13442613 78.93669536 337.71081045 C78.93320445 339.60756491 78.94932821 341.50432472 78.96629983 343.40100646 C78.90458107 351.62486139 77.96892905 359.31556124 72.1953125 365.5703125 C63.28621805 370.63229798 55.04416191 370.5759095 45.046875 370.53125 C43.44558581 370.53327461 41.84429753 370.53618927 40.24301147 370.53994751 C36.89596734 370.54435521 33.54916439 370.53799196 30.20214844 370.52392578 C25.93663052 370.50686249 21.67168023 370.51666662 17.40618324 370.53464317 C14.10136739 370.54554704 10.79668335 370.54200414 7.49186325 370.5342598 C5.92037258 370.53227453 4.34886949 370.53465745 2.77739334 370.54169846 C-17.0138358 370.61091167 -17.0138358 370.61091167 -24.4921875 364.8828125 C-30.14392603 357.34716113 -29.98127522 350.66100606 -29.9289093 341.48616028 C-29.93165166 340.08878406 -29.93570525 338.69140991 -29.94095296 337.29404086 C-29.95152261 333.46376544 -29.9434221 329.63372398 -29.93220246 325.80345881 C-29.92335161 321.66916884 -29.93180642 317.53490918 -29.93806458 313.40061951 C-29.9475487 305.30618995 -29.94095653 297.2118496 -29.92880163 289.11742667 C-29.91517789 279.693807 -29.91681976 270.27020856 -29.91893496 260.84658154 C-29.92212415 244.03613044 -29.91046014 227.22572173 -29.89086914 210.4152832 C-29.87185618 194.09658518 -29.86478405 177.77793682 -29.87036133 161.45922852 C-29.87641569 143.69201545 -29.87624904 125.92482423 -29.8648755 108.15761298 C-29.86366819 106.26416536 -29.8624622 104.37071774 -29.86125755 102.47727013 C-29.86065401 101.54562862 -29.86005048 100.61398711 -29.85942865 99.65411404 C-29.85554592 93.08207279 -29.85594446 86.51003966 -29.8578434 79.93799782 C-29.8599629 71.933592 -29.85475967 63.92922973 -29.84022985 55.9248362 C-29.83297426 51.83931006 -29.82891877 47.75384742 -29.83347321 43.66831589 C-29.83753812 39.93109801 -29.8324171 36.19401145 -29.81984713 32.45681354 C-29.81551482 30.45888431 -29.82102234 28.46094131 -29.82683641 26.46301585 C-29.82100421 25.28198085 -29.81517202 24.10094584 -29.80916309 22.88412189 C-29.80829632 21.86267151 -29.80742954 20.84122113 -29.8065365 19.7888177 C-29.55039448 17.08753821 -28.93944024 15.4412746 -27.5546875 13.1328125 C-27.55333097 13.84822761 -27.55197444 14.56364272 -27.55057681 15.30073708 C-27.46996848 57.67961147 -27.37903107 100.05845269 -27.27463589 142.43727548 C-27.26211666 147.5230435 -27.24968394 152.60881172 -27.23730469 157.69458008 C-27.23483869 158.70708693 -27.2323727 159.71959379 -27.22983198 160.76278267 C-27.19008245 177.16820672 -27.15734482 193.57363767 -27.12718768 209.97908183 C-27.09609984 226.80614143 -27.05750191 243.63317164 -27.01189744 260.46019822 C-26.98398319 270.84765838 -26.9619629 281.23509699 -26.94742499 291.62258462 C-26.93690223 298.74070237 -26.9191004 305.85877845 -26.89552046 312.97686484 C-26.88212234 317.08676188 -26.87198542 321.1966004 -26.87047386 325.30652046 C-26.86901994 329.06751971 -26.85844728 332.82837787 -26.84055309 336.58933381 C-26.83338872 338.59778318 -26.83604436 340.60626011 -26.83902323 342.61472005 C-26.83155774 343.80554639 -26.82409225 344.99637273 -26.81640053 346.22328472 C-26.81412221 347.25118766 -26.81184388 348.27909059 -26.80949652 349.3381421 C-26.53621113 352.33545584 -25.9403282 354.46471756 -24.5546875 357.1328125 C-18.81912682 360.62402335 -14.15397091 361.25819061 -7.52636719 361.30981445 C-6.82662277 361.31638565 -6.12687836 361.32295685 -5.40592957 361.32972717 C-3.09613932 361.34939505 -0.78641393 361.36110868 1.5234375 361.37109375 C2.71102283 361.37720704 2.71102283 361.37720704 3.92259979 361.38344383 C8.11392452 361.40427766 12.30521678 361.4185905 16.49658203 361.42797852 C20.81177318 361.43903245 25.1264472 361.47342794 29.44145584 361.51315022 C32.77190061 361.5393731 36.10222323 361.54767539 39.43276215 361.55125999 C41.02268717 361.55611196 42.61260724 361.56768613 44.20243073 361.58629799 C56.12028713 362.13172211 56.12028713 362.13172211 66.4453125 357.1328125 C69.95775365 350.14770377 69.86320229 343.62924339 69.81280518 335.91999817 C69.8148318 334.58179607 69.81817384 333.24359544 69.82271075 331.9053995 C69.83133019 328.24296839 69.82132 324.58079233 69.80816841 320.91838348 C69.79724454 316.96254146 69.80368764 313.0067223 69.80795288 309.0508728 C69.81358104 301.30581586 69.80328031 293.5608581 69.78766492 285.81581805 C69.770103 276.78853604 69.76870514 267.76127311 69.76804933 258.73397668 C69.76636175 242.61877233 69.75055508 226.50361302 69.7265625 210.38842773 C69.70332448 194.76863227 69.68914032 179.14886535 69.68554688 163.52905273 C69.68521272 162.08707043 69.68521272 162.08707043 69.68487182 160.61595718 C69.6844292 158.67920671 69.68398718 156.74245624 69.68354575 154.80570577 C69.6832164 153.37244888 69.6832164 153.37244888 69.6828804 151.91023731 C69.68266442 150.95707083 69.68244843 150.00390435 69.6822259 149.02185403 C69.67851795 134.11600792 69.66715701 119.21016638 69.65475 104.30432532 C69.65032549 98.91163933 69.64688275 93.51895378 69.64412788 88.1262667 C69.63968118 79.56651617 69.63185914 71.00678256 69.61735347 62.44704268 C69.6107795 58.53863434 69.60568595 54.63024073 69.60489273 50.72182655 C69.60409851 47.13594641 69.59862203 43.55010345 69.58957323 39.96423491 C69.58592552 38.06943843 69.58703571 36.17463457 69.5883801 34.27983505 C70.34618752 18.96287539 70.34618752 18.96287539 65.4453125 5.1328125 C61.23525696 2.88269891 57.19556283 2.85984956 52.53393555 2.90576172 C51.75291977 2.90546967 50.97190399 2.90517761 50.16722107 2.90487671 C47.59704305 2.90626514 45.02715836 2.92180329 42.45703125 2.9375 C40.67055927 2.94123186 38.88408524 2.94407802 37.09761047 2.94607544 C32.4040254 2.95369826 27.71056482 2.97333514 23.01702881 2.9954834 C18.22426029 3.01597095 13.43147159 3.02508338 8.63867188 3.03515625 C-0.75916917 3.0565823 -10.15691797 3.09070194 -19.5546875 3.1328125 C-13.91373467 -0.62782272 -6.60884993 -0.01740284 0 0 Z " fill="#010101" transform="translate(403.5546875,127.8671875)"/>
<path d="M0 0 C1.35849034 -0.0032195 2.71698033 -0.00658408 4.07546997 -0.01008606 C6.91474206 -0.01605129 9.75398382 -0.01792863 12.59326172 -0.01733398 C16.20973112 -0.01723245 19.82600382 -0.03088739 23.44242668 -0.04810619 C26.24619418 -0.05928983 29.04991504 -0.06125126 31.85370255 -0.06072426 C33.82825428 -0.06245893 35.80279147 -0.07325677 37.77731323 -0.08427429 C55.55741303 -0.0393628 55.55741303 -0.0393628 61.0078125 4.91796875 C61.55308594 5.3871875 62.09835937 5.85640625 62.66015625 6.33984375 C66.66089041 11.52639108 66.35714738 17.61594132 66.33100891 23.83982849 C66.33674723 25.29181274 66.33674723 25.29181274 66.34260148 26.77313 C66.35291198 30.01344089 66.348943 33.25357395 66.3449707 36.49389648 C66.34931823 38.81837121 66.35450151 41.14284451 66.36045837 43.46731567 C66.37385469 49.77922869 66.37442636 56.09108185 66.37189507 62.40300632 C66.37069061 68.33804302 66.37690241 74.27306964 66.38232853 80.20810331 C66.39320001 92.68053316 66.39104337 105.15293597 66.38494369 117.62536735 C66.37977422 129.03047697 66.39103142 140.4355012 66.41004191 151.84059393 C66.42942279 163.55792435 66.43767591 175.27521437 66.43391865 186.99256092 C66.43210453 193.56834301 66.43475498 200.14404686 66.44863319 206.71981621 C66.46119425 212.9028798 66.4592836 219.08577224 66.44622231 225.26883316 C66.4438533 227.53799179 66.44660277 229.8071624 66.45484543 232.0763073 C66.46528678 235.17411261 66.45723283 238.27134087 66.4445343 241.36912537 C66.45190859 242.2667975 66.45928287 243.16446964 66.46688062 244.08934397 C66.40748038 250.97847661 65.29103924 255.78861867 60.4453125 260.98046875 C53.12356559 266.4326151 42.91889811 265.47505545 34.26953125 265.46875 C32.95676712 265.47303513 31.64400299 265.47732025 30.29145813 265.48173523 C27.52377256 265.48915534 24.75621464 265.48893755 21.98852539 265.48364258 C18.47541688 265.4778611 14.96283787 265.494767 11.4498167 265.51798725 C8.05636822 265.53643252 4.66302929 265.53253582 1.26953125 265.53125 C0.02539963 265.54045975 -1.21873199 265.54966949 -2.50056458 265.55915833 C-11.19319987 265.5137087 -21.35851702 265.32065174 -28.5546875 259.79296875 C-33.36852919 254.47240688 -33.21738663 249.43760878 -33.18365479 242.59617615 C-33.18677477 241.62692438 -33.18989475 240.65767261 -33.19310927 239.65904957 C-33.20109176 236.40862433 -33.19476459 233.15838564 -33.18847656 229.90795898 C-33.19118629 227.57876476 -33.19474712 225.24957138 -33.19909668 222.92037964 C-33.20822457 216.59207525 -33.20467488 210.26383597 -33.19833851 203.93553042 C-33.1937936 197.98936577 -33.19725972 192.04320922 -33.2001929 186.09704436 C-33.20589534 173.60372365 -33.19933941 161.11043229 -33.18859217 148.6171164 C-33.17965464 137.8955271 -33.18121051 127.1739811 -33.19042969 116.45239258 C-33.20113023 104.00218161 -33.20534823 91.55199635 -33.19920516 79.10178143 C-33.19608324 72.51100917 -33.19568227 65.92026674 -33.20227814 59.32949638 C-33.20804426 53.13499219 -33.20406811 46.94056999 -33.19248962 40.74607468 C-33.18983923 38.46920851 -33.19061456 36.19233548 -33.19501495 33.91547203 C-33.20045676 30.81447992 -33.19365279 27.7137528 -33.18365479 24.61277771 C-33.19034695 23.25213854 -33.19034695 23.25213854 -33.19717431 21.8640117 C-33.19195882 21.03356625 -33.18674332 20.2031208 -33.18136978 19.34751034 C-33.18104508 18.63178984 -33.18072037 17.91606933 -33.18038583 17.17866033 C-32.88874956 14.83963162 -32.08404386 13.20721661 -30.9296875 11.16796875 C-30.92914273 12.38994807 -30.92859797 13.61192739 -30.92803669 14.87093639 C-30.91399576 43.87136634 -30.87425829 72.87168063 -30.80283188 101.87202243 C-30.79406502 105.44064146 -30.78551523 109.00926098 -30.77709961 112.57788086 C-30.77542055 113.28833562 -30.77374148 113.99879039 -30.77201154 114.73077408 C-30.74533401 126.2378207 -30.73624592 137.74481751 -30.73364607 149.25189187 C-30.73058776 161.05722531 -30.70865532 172.8624146 -30.66916293 184.66768295 C-30.64752025 191.29940182 -30.63525002 197.93092972 -30.64353371 204.56268883 C-30.65105199 210.80161659 -30.63534092 217.04004975 -30.60162735 223.2788868 C-30.59336733 225.57144081 -30.59367539 227.86404376 -30.60309029 230.15659332 C-30.6146575 233.28208192 -30.5956763 236.40593477 -30.56892395 239.53129578 C-30.57959721 240.44277726 -30.59027047 241.35425875 -30.60126716 242.29336089 C-30.53049485 246.71182985 -30.37662867 248.58701651 -27.60532665 252.18926716 C-20.49726826 257.44585284 -11.56446138 256.46062038 -3.12109375 256.43359375 C-1.78645253 256.43494417 -0.45181179 256.43688784 0.88282776 256.43939209 C3.66908489 256.44232665 6.45521305 256.43810054 9.24145508 256.42871094 C12.78953822 256.41732845 16.33731828 256.42387872 19.88539028 256.43585587 C22.6385572 256.44312935 25.39165388 256.44076135 28.14482307 256.43560028 C30.08169377 256.4336415 32.01856734 256.43965212 33.95542908 256.44586182 C44.94374663 256.80241914 44.94374663 256.80241914 54.74632263 252.7822876 C56.98015814 250.05860908 57.1960792 247.49663551 57.20453358 244.1142683 C57.21122034 242.87251175 57.21122034 242.87251175 57.21804219 241.6056692 C57.21785783 240.6963457 57.21767347 239.78702219 57.21748352 238.85014343 C57.22116021 237.88401164 57.2248369 236.91787985 57.228625 235.92247134 C57.23967769 232.67055826 57.24350835 229.41867712 57.24731445 226.16674805 C57.25357782 223.84109393 57.2602245 221.51544082 57.26722717 219.18978882 C57.28464665 212.86125652 57.29519116 206.53273177 57.3034327 200.20418143 C57.30858002 196.25273046 57.31465582 192.30128184 57.32094383 188.34983253 C57.33781325 177.40974438 57.35244891 166.46965831 57.35969257 155.52955914 C57.36160246 152.69101142 57.3635228 149.8524637 57.36547852 147.01391602 C57.36620413 145.95565801 57.36620413 145.95565801 57.3669444 144.87602106 C57.37524691 133.44416307 57.40058838 122.01240963 57.43305919 110.5805973 C57.46612359 98.84416245 57.48414071 87.10778076 57.48733681 75.37129909 C57.489691 68.78149194 57.49869972 62.19185013 57.52379799 55.60208702 C57.54702214 49.40426939 57.55133461 43.20672661 57.54103661 37.0088768 C57.54053979 34.73284175 57.54690298 32.45679342 57.56059265 30.18079948 C57.57822539 27.07578273 57.57124743 23.9717616 57.55805969 20.866745 C57.56902894 19.96411366 57.57999818 19.06148232 57.59129983 18.13149852 C57.53361921 12.5141992 56.70939048 9.50034223 53.0703125 5.16796875 C49.63810501 2.57722554 46.10497128 2.92646993 41.91503906 2.94091797 C41.20244431 2.94062592 40.48984955 2.94033386 39.75566101 2.94003296 C37.40729469 2.94142298 35.05924819 2.95696853 32.7109375 2.97265625 C31.07997816 2.97638755 29.44901658 2.97923397 27.8180542 2.98123169 C23.53051539 2.98885895 19.2431126 3.00849963 14.95562744 3.03063965 C10.57850993 3.05111763 6.20137038 3.06023758 1.82421875 3.0703125 C-6.76047901 3.0917464 -15.34506632 3.12587136 -23.9296875 3.16796875 C-17.15069344 -1.35136062 -7.84724102 0.00675996 0 0 Z " fill="#060606" transform="translate(290.9296875,232.83203125)"/>
<path d="M0 0 C0.78601593 -0.00276947 1.57203186 -0.00553894 2.38186646 -0.00839233 C33.50441236 -0.0882509 33.50441236 -0.0882509 40.1875 4.125 C46.07950787 10.01700787 47.43518058 15.3375008 47.44819641 23.51229858 C47.45393473 24.59570477 47.45393473 24.59570477 47.45978898 25.70099795 C47.47006889 28.10982238 47.46613642 30.51840621 47.4621582 32.92724609 C47.46650747 34.65897338 47.47169134 36.39069875 47.47764587 38.12242126 C47.49102449 42.81875606 47.49161577 47.51501032 47.48908257 52.21136045 C47.48801202 56.13524733 47.49289844 60.05911796 47.497688 63.98300135 C47.50877941 73.24226068 47.50922275 82.50147943 47.50317383 91.76074219 C47.49713452 101.3049273 47.50944481 110.84896498 47.5307439 120.39312494 C47.54837192 128.5945865 47.55435933 136.79600118 47.55110615 144.99748099 C47.54929495 149.89265237 47.55191315 154.78771859 47.56582069 159.68287277 C47.57841381 164.28760726 47.57644089 168.8921123 47.56340981 173.49684334 C47.56104765 175.18344895 47.56376576 176.87007079 47.57203293 178.55665779 C47.65556073 196.92682122 47.65556073 196.92682122 41.8125 204 C35.96846124 208.73088852 29.39409326 209.24340718 22.06542969 209.27026367 C20.87689392 209.27664352 19.68835815 209.28302338 18.46380615 209.28959656 C17.19184387 209.29070938 15.91988159 209.2918222 14.609375 209.29296875 C13.27427129 209.29618772 11.93916793 209.29955226 10.60406494 209.30305481 C7.81009098 209.30902637 5.01614786 209.31089682 2.22216797 209.31030273 C-1.33257821 209.3102014 -4.88712336 209.32383276 -8.44182205 209.34107494 C-11.1993091 209.3522753 -13.95674884 209.35421947 -16.71425629 209.35369301 C-18.65385931 209.35542476 -20.59344757 209.36621589 -22.53302002 209.37724304 C-41.74794302 209.32802564 -41.74794302 209.32802564 -48.8125 203.125 C-53.04148385 196.70861072 -52.93494805 189.23652748 -52.95294189 181.77639771 C-52.95591302 181.08241406 -52.95888414 180.38843042 -52.9619453 179.67341697 C-52.97054442 177.37227188 -52.97213298 175.07117935 -52.97363281 172.77001953 C-52.97826708 171.11020804 -52.98329255 169.4503976 -52.98867798 167.79058838 C-53.00174196 163.29879877 -53.0082347 158.80702407 -53.01268864 154.31521845 C-53.01562799 151.50495233 -53.01973431 148.69469021 -53.02419281 145.88442612 C-53.03784951 137.07982883 -53.04752611 128.27524077 -53.0513947 119.47063363 C-53.05587654 109.32828433 -53.07343797 99.18606972 -53.1023953 89.04376137 C-53.12404189 81.18787968 -53.13410051 73.33203583 -53.13543582 65.47612464 C-53.13648135 60.79105872 -53.14233589 56.10611973 -53.16025543 51.42108536 C-53.1767886 47.01331475 -53.17886629 42.60576582 -53.17011642 38.19797516 C-53.16934896 36.5863803 -53.17365021 34.97477325 -53.18357468 33.36320877 C-53.29835653 13.55297992 -53.29835653 13.55297992 -47.5 6.1875 C-42.11264459 2.05301794 -37.46817576 0.63544943 -30.75 0.4375 C-29.50827026 0.38843506 -29.50827026 0.38843506 -28.24145508 0.33837891 C-18.83235543 0.02696662 -9.41342523 0.02193123 0 0 Z M-35.12890625 2.4375 C-36.33361572 2.49164063 -37.5383252 2.54578125 -38.77954102 2.6015625 C-42.84282744 3.30281712 -45.0261815 4.93692755 -47.6484375 8.04296875 C-50.47213357 13.093405 -51.06399116 17.72281214 -51.07319641 23.4498291 C-51.07702196 24.16534392 -51.08084751 24.88085874 -51.08478898 25.61805582 C-51.09506752 28.00390988 -51.09113673 30.38952097 -51.0871582 32.77539062 C-51.09150747 34.49065879 -51.09669134 36.20592501 -51.10264587 37.92118835 C-51.1160225 42.57193599 -51.11661614 47.22260229 -51.11408257 51.8733654 C-51.11301218 55.75767561 -51.11789788 59.64196942 -51.122688 63.52627611 C-51.13377809 72.68956768 -51.13422307 81.85281825 -51.12817383 91.01611328 C-51.12213057 100.46718059 -51.13445514 109.91809916 -51.1557439 119.3691411 C-51.17335754 127.48734502 -51.17936172 135.60550157 -51.17610615 143.72372389 C-51.17429313 148.57076533 -51.17693167 153.4177006 -51.19082069 158.26472473 C-51.20339091 162.82184891 -51.20146259 167.37874099 -51.18840981 171.93586159 C-51.1860429 173.60718171 -51.18878282 175.27851813 -51.19703293 176.94981956 C-51.20749244 179.23353932 -51.19940682 181.51647905 -51.1867218 183.8001709 C-51.18688954 185.07735741 -51.18705729 186.35454391 -51.18723011 187.67043304 C-50.66905046 192.44743452 -49.34193714 195.89295342 -45.5625 198.9375 C-38.28322328 202.08082404 -29.9091252 201.30205005 -22.13671875 201.328125 C-21.15559081 201.33236607 -21.15559081 201.33236607 -20.15464211 201.33669281 C-16.69366691 201.35161558 -13.23273266 201.36088888 -9.77172852 201.36523438 C-6.22477237 201.37071183 -2.67820143 201.39474406 0.86863422 201.42320633 C3.62183177 201.44196241 6.37493882 201.44704512 9.12819481 201.44857025 C11.06339869 201.45301055 12.99855386 201.47158821 14.93367004 201.49053955 C21.99569244 201.47284731 28.68871265 201.15375018 35.1875 198.125 C39.28196493 193.2860869 39.31374683 188.14142684 39.32794189 182.00271606 C39.33091302 181.28482654 39.33388414 180.56693702 39.3369453 179.82729328 C39.34561777 177.42147146 39.3471393 175.01569949 39.34863281 172.60986328 C39.35326195 170.8850392 39.35828674 169.16021615 39.36367798 167.43539429 C39.37679326 162.74942771 39.38324504 158.06347545 39.38768864 153.37749338 C39.39062028 150.45002328 39.39472523 147.52255709 39.39919281 144.59508896 C39.41286437 135.43595273 39.42253315 126.27682544 39.4263947 117.11767972 C39.43087717 106.54396876 39.44843527 95.97038696 39.4773953 85.39671528 C39.4990045 77.2233574 39.50909855 69.05003588 39.51043582 60.87664974 C39.51148423 55.99491655 39.51740001 51.11330484 39.53525543 46.23160172 C39.55172331 41.64004536 39.55389787 37.04870197 39.54511642 32.45712662 C39.54434541 30.77290273 39.54869728 29.08866745 39.55857468 27.40447235 C39.57127894 25.10314492 39.56542618 22.80257354 39.55499268 20.50125122 C39.55645924 19.21409273 39.5579258 17.92693424 39.5594368 16.60077095 C39.07796566 12.1013952 37.56161523 8.84605115 34.74900818 5.32331848 C29.01914649 0.92615986 19.75426366 1.84537594 12.93359375 1.89453125 C11.87447281 1.89498947 10.81535187 1.89544769 9.72413635 1.8959198 C7.49112828 1.89892699 5.25812202 1.906767 3.02514648 1.91918945 C-0.34073587 1.93731548 -3.70633975 1.93969955 -7.07226562 1.93945312 C-16.42518808 1.95307263 -25.78471944 2.00076704 -35.12890625 2.4375 Z " fill="#030303" transform="translate(193.8125,288.875)"/>
<path d="M0 0 C0.69959839 -0.00511093 1.39919678 -0.01022186 2.11999512 -0.01548767 C4.43530821 -0.02939802 6.75032387 -0.02842497 9.06567383 -0.02612305 C10.67890025 -0.03001101 12.29212565 -0.03434588 13.90534973 -0.03910828 C17.2906119 -0.0465749 20.67576981 -0.04627736 24.06103516 -0.04101562 C28.38403627 -0.03523973 32.70660632 -0.05210393 37.02953625 -0.0753603 C40.364288 -0.09015152 43.69893745 -0.09096171 47.0337162 -0.08785057 C48.62640545 -0.08836172 50.21910074 -0.0935605 51.81175804 -0.10366249 C69.36783796 -0.20129652 69.36783796 -0.20129652 76.46020508 5.0246582 C80.87942626 11.14357983 80.38193272 18.45668848 80.37573242 25.68261719 C80.38244965 26.81195679 80.38916687 27.94129639 80.39608765 29.1048584 C80.4150389 32.82686803 80.41899016 36.54869712 80.42114258 40.27075195 C80.42757149 42.86475193 80.43429992 45.45875118 80.4413147 48.05274963 C80.45327957 53.48554475 80.45708207 58.91826855 80.45581055 64.35107422 C80.45460887 70.61608755 80.47572406 76.88075654 80.50729787 83.14568275 C80.53667281 89.19146195 80.54378481 95.23705507 80.54259109 101.28291512 C80.54494842 103.84690827 80.5537793 106.41090408 80.56925583 108.97485161 C80.58888836 112.56262569 80.58308791 116.14951586 80.57104492 119.73730469 C80.58228394 120.79158157 80.59352295 121.84585846 80.60510254 122.93208313 C80.54050227 130.51978462 79.12854549 136.06224332 73.83520508 141.6496582 C66.36038357 146.06659819 58.08742577 145.56804763 49.67114258 145.5402832 C48.38390289 145.54219666 47.09666321 145.54411011 45.77041626 145.54608154 C43.05221725 145.54901732 40.33415034 145.54478956 37.6159668 145.53540039 C34.17374672 145.5240753 30.73184106 145.53053072 27.2896328 145.54254532 C23.95844609 145.55162449 20.62733814 145.54521296 17.29614258 145.5402832 C16.08107025 145.54433167 14.86599792 145.54838013 13.61410522 145.55255127 C-8.83621239 145.43203177 -8.83621239 145.43203177 -14.60229492 141.0871582 C-19.96742582 134.56199901 -20.36480209 128.70195919 -20.37890625 120.54101562 C-20.39231049 119.4831636 -20.40571472 118.42531158 -20.41952515 117.33540344 C-20.45979717 113.85028671 -20.47884411 110.36542454 -20.49682617 106.88012695 C-20.5187686 104.44785167 -20.54170743 102.01558518 -20.56559753 99.58332825 C-20.61242743 94.48851881 -20.64908821 89.39376876 -20.67822266 84.29882812 C-20.71600796 77.78563781 -20.77602614 71.27288848 -20.84334278 64.75994396 C-20.89328895 59.73697502 -20.93285283 54.71396601 -20.96918297 49.69088173 C-20.98749705 47.2904153 -21.00865146 44.88996873 -21.0327549 42.48955345 C-21.06467797 39.12517237 -21.08296337 35.76097927 -21.09765625 32.39648438 C-21.10948441 31.41485321 -21.12131256 30.43322205 -21.13349915 29.42184448 C-21.1423176 23.25790834 -20.77604628 17.19317121 -18.91479492 11.2746582 C-18.25479492 10.6146582 -17.59479492 9.9546582 -16.91479492 9.2746582 C-17.07803757 10.5322847 -17.24128021 11.78991119 -17.4094696 13.08564758 C-18.00746356 18.50169269 -18.03675081 23.85504131 -18 29.29882812 C-17.99681763 30.36339737 -17.99363525 31.42796661 -17.99035645 32.52479553 C-17.97784378 36.01829888 -17.9569598 39.51167528 -17.93432617 43.00512695 C-17.92736914 44.20296625 -17.9204121 45.40080555 -17.91324425 46.63494301 C-17.87596496 52.96371622 -17.83200588 59.29240317 -17.78271484 65.62109375 C-17.73319494 72.15456242 -17.70712366 78.68790827 -17.68628407 85.22152233 C-17.66592988 90.25308332 -17.62806304 95.28440377 -17.58542442 100.31582069 C-17.56808732 102.72511286 -17.55739013 105.13446235 -17.55347633 107.54381371 C-17.54640219 110.90920676 -17.51450547 114.27350477 -17.4765625 117.63867188 C-17.48002182 118.63154205 -17.48348114 119.62441223 -17.48704529 120.64736938 C-17.38985437 126.47452243 -16.78933855 129.8293561 -12.91479492 134.2746582 C-4.97200496 138.24605318 7.90307132 136.43415761 16.67504883 136.44262695 C17.90381241 136.44595535 19.13257599 136.44928375 20.39857483 136.45271301 C22.96900055 136.45773196 25.53943267 136.46012292 28.10986328 136.45996094 C32.03729801 136.4621664 35.96445976 136.48042709 39.8918457 136.49926758 C42.40291246 136.50219881 44.91398054 136.50418541 47.42504883 136.50512695 C48.59180649 136.51231247 49.75856415 136.51949799 50.9606781 136.52690125 C56.70358405 136.51077223 61.70620221 136.38118261 67.08520508 134.2746582 C70.48541893 130.76110389 71.2086673 127.36822385 71.22564697 122.59515381 C71.23135712 121.63351822 71.23706726 120.67188263 71.24295044 119.68110657 C71.2440683 118.62755478 71.24518616 117.57400299 71.24633789 116.48852539 C71.2513028 115.37767075 71.2562677 114.2668161 71.26138306 113.12229919 C71.27601593 109.43870428 71.2828089 105.75515244 71.28833008 102.0715332 C71.29408099 99.51426187 71.29983873 96.95699054 71.30560303 94.39971924 C71.31477216 89.71922595 71.3210709 85.03874561 71.32409978 80.35824561 C71.32857659 73.47869748 71.34610759 66.59934841 71.37510037 59.71986079 C71.39936533 53.75421261 71.40704627 47.78861374 71.40877533 41.82291412 C71.41180171 39.28879971 71.4198297 36.75468614 71.43296051 34.22060394 C71.45002924 30.67303938 71.44813829 27.1259582 71.44165039 23.57836914 C71.45086517 22.53291428 71.46007996 21.48745941 71.46957397 20.4103241 C71.4364436 14.62254397 71.06505787 10.3083114 68.08520508 5.2746582 C64.78625711 2.57858459 60.96075907 2.99787814 56.83813477 2.95581055 C56.11578644 2.94576492 55.39343811 2.9357193 54.64920044 2.92536926 C52.26850153 2.89455018 49.88791501 2.87750589 47.50708008 2.8605957 C45.8536889 2.84188301 44.20030726 2.82230951 42.54693604 2.8019104 C38.20033391 2.75059386 33.85370083 2.71096562 29.50695801 2.67376709 C25.06942082 2.63372443 20.63201237 2.58263328 16.19458008 2.5324707 C7.49154304 2.43571707 -1.21155774 2.35131053 -9.91479492 2.2746582 C-6.22964633 -0.18210752 -4.39784126 0.01600462 0 0 Z " fill="#060606" transform="translate(43.914794921875,352.725341796875)"/>
<path d="M0 0 C1.65119995 0.33521053 3.30267009 0.66909256 4.95439148 1.00172424 C9.24839095 1.87035072 13.53830532 2.75769818 17.82763672 3.64904785 C21.34425596 4.37657343 24.8635033 5.09086179 28.38296223 5.80450344 C35.64648167 7.27736147 42.90831173 8.7586169 50.1652832 10.26342773 C51.44272903 10.52768051 52.72017487 10.79193329 54.03633118 11.06419373 C57.13671875 11.75390625 57.13671875 11.75390625 60.13671875 12.75390625 C58.13671875 14.75390625 58.13671875 14.75390625 56.18772888 14.81355286 C49.31804074 13.99384914 42.57423315 12.77423964 35.796875 11.390625 C34.6353038 11.15737015 33.4737326 10.9241153 32.27696228 10.68379211 C28.58345314 9.94085048 24.89135281 9.19114809 21.19921875 8.44140625 C18.75594493 7.94944473 16.31258618 7.45790475 13.86914062 6.96679688 C-5.42068623 3.08027013 -5.42068623 3.08027013 -12.60595703 1.50634766 C-13.47225235 1.31780716 -14.33854767 1.12926666 -15.23109436 0.93501282 C-16.79588922 0.59210967 -18.35939577 0.24323756 -19.92112732 -0.11335754 C-26.08293016 -1.46344758 -31.71710232 -1.73607652 -37.86328125 -0.24609375 C-33.58699082 -8.79867461 -7.65706816 -1.60883521 0 0 Z " fill="#1A1A1A" transform="translate(223.86328125,137.24609375)"/>
<path d="M0 0 C1.13005623 3.39016869 0.69790994 5.54615958 0 9 C-0.08356789 10.55273836 -0.12208176 12.10842191 -0.12025452 13.66340637 C-0.12162918 14.57059418 -0.12300385 15.47778198 -0.12442017 16.41246033 C-0.12082489 17.39501297 -0.11722961 18.37756561 -0.11352539 19.38989258 C-0.11367142 20.43425476 -0.11381744 21.47861694 -0.1139679 22.55462646 C-0.11327209 26.00128263 -0.10549518 29.44788454 -0.09765625 32.89453125 C-0.09579089 35.28635122 -0.09436754 37.67817158 -0.09336853 40.06999207 C-0.08955264 46.36149147 -0.07973024 52.65296774 -0.06866455 58.94445801 C-0.05843051 65.36596361 -0.05386664 71.78747296 -0.04882812 78.20898438 C-0.03810716 90.80599944 -0.0212344 103.40299849 0 116 C-0.66 116 -1.32 116 -2 116 C-2.17737706 102.61292724 -2.343303 89.22576556 -2.49477577 75.83837318 C-2.56547351 69.62149262 -2.64005437 63.40471008 -2.72363281 57.18798828 C-2.80420664 51.18397558 -2.87441916 45.17992146 -2.93757248 39.17570114 C-2.96341466 36.88964784 -2.99293486 34.60363294 -3.02626419 32.31767654 C-3.07245266 29.1058531 -3.10533704 25.89413964 -3.13525391 22.68212891 C-3.1517952 21.74560486 -3.16833649 20.80908081 -3.18537903 19.84417725 C-3.22749209 13.23658248 -3.00923119 6.01846237 0 0 Z " fill="#1E1E1E" transform="translate(26,362)"/>
<path d="M0 0 C1.52073815 2.28110723 2.70939363 4.38872781 3.9375 6.8125 C7.15456919 12.69431024 11.3808904 17.76016365 15.57421875 22.9609375 C18 26 18 26 20 29 C18.35 30.32 16.7 31.64 15 33 C14.44570313 31.98808594 13.89140625 30.97617187 13.3203125 29.93359375 C10.76261591 25.45255439 7.69646578 21.40703977 4.53515625 17.33789062 C1.31212197 12.99993966 -0.11028166 9.3547863 -1 4 C-0.53955078 1.76196289 -0.53955078 1.76196289 0 0 Z " fill="#070707" transform="translate(374,19)"/>
<path d="M0 0 C0.495 1.485 0.495 1.485 1 3 C-4.71393787 2.62594989 -10.12148296 1.80323566 -15.6875 0.4375 C-22.22693957 -1.13780565 -27.38994848 -1.60243673 -34 0 C-30.17348467 -7.65303067 -6.22103748 -2.27325129 0 0 Z " fill="#1E1E1E" transform="translate(220,137)"/>
<path d="M0 0 C0.66 0.33 1.32 0.66 2 1 C-11 14 -11 14 -12.6875 15.625 C-14.23918941 17.17108027 -14.23918941 17.17108027 -16 20 C-15.62245251 13.77046646 -11.21197835 10.03437425 -6.859375 6.03125 C-4.92368027 4.33229491 -2.96729041 2.66210216 -1 1 C-0.67 0.67 -0.34 0.34 0 0 Z " fill="#9A9A9A" transform="translate(75,235)"/>
<path d="M0 0 C0.66 0.33 1.32 0.66 2 1 C0.08643227 2.94064652 -1.83067938 4.877557 -3.75 6.8125 C-4.55824219 7.63331055 -4.55824219 7.63331055 -5.3828125 8.47070312 C-8.11740863 11.22197363 -10.79683904 13.78422118 -14 16 C-14.66 15.67 -15.32 15.34 -16 15 C-10.72 10.05 -5.44 5.1 0 0 Z " fill="#939393" transform="translate(328,107)"/>
<path d="M0 0 C0.66 0.33 1.32 0.66 2 1 C0.11332491 2.96791947 -1.78341886 4.9240423 -3.6875 6.875 C-4.21794922 7.43058594 -4.74839844 7.98617187 -5.29492188 8.55859375 C-8.32498606 11.64442599 -10.74067143 13.75143986 -15 15 C-10.72226048 9.75976909 -6.16137595 5.36068517 -1 1 C-0.67 0.67 -0.34 0.34 0 0 Z " fill="#999999" transform="translate(106,207)"/>
</svg>
